<svg width="32" height="32" viewBox="0 0 32 32" fill="none" xmlns="http://www.w3.org/2000/svg">
<path d="M22.6665 26.6667H29.3332V24C29.3332 21.7909 27.5423 20 25.3332 20C24.059 20 22.924 20.5958 22.1915 21.5239M22.6665 26.6667H9.33317M22.6665 26.6667V24C22.6665 23.1251 22.4979 22.2894 22.1915 21.5239M9.33317 26.6667H2.6665V24C2.6665 21.7909 4.45736 20 6.6665 20C7.94065 20 9.07565 20.5958 9.80817 21.5239M9.33317 26.6667V24C9.33317 23.1251 9.50174 22.2894 9.80817 21.5239M9.80817 21.5239C10.7912 19.0681 13.1929 17.3334 15.9998 17.3334C18.8068 17.3334 21.2085 19.0681 22.1915 21.5239M19.9998 9.33337C19.9998 11.5425 18.209 13.3334 15.9998 13.3334C13.7907 13.3334 11.9998 11.5425 11.9998 9.33337C11.9998 7.12423 13.7907 5.33337 15.9998 5.33337C18.209 5.33337 19.9998 7.12423 19.9998 9.33337ZM27.9998 13.3334C27.9998 14.8061 26.8059 16 25.3332 16C23.8604 16 22.6665 14.8061 22.6665 13.3334C22.6665 11.8606 23.8604 10.6667 25.3332 10.6667C26.8059 10.6667 27.9998 11.8606 27.9998 13.3334ZM9.33317 13.3334C9.33317 14.8061 8.13926 16 6.6665 16C5.19374 16 3.99984 14.8061 3.99984 13.3334C3.99984 11.8606 5.19374 10.6667 6.6665 10.6667C8.13926 10.6667 9.33317 11.8606 9.33317 13.3334Z" stroke="white" stroke-width="2" stroke-linecap="round" stroke-linejoin="round"/>
</svg>
