<svg width="32" height="32" viewBox="0 0 32 32" fill="none" xmlns="http://www.w3.org/2000/svg">
<path d="M18.7096 12.6554C19.0715 13.0725 19.7031 13.1173 20.1202 12.7553C20.5374 12.3933 20.5821 11.7618 20.2202 11.3446L18.7096 12.6554ZM13.2905 19.3446C12.9285 18.9275 12.2969 18.8827 11.8798 19.2447C11.4626 19.6067 11.4179 20.2382 11.7799 20.6554L13.2905 19.3446ZM17 9.33333C17 8.78105 16.5523 8.33333 16 8.33333C15.4477 8.33333 15 8.78105 15 9.33333H17ZM15 22.6666C15 23.2189 15.4477 23.6667 16 23.6667C16.5523 23.6667 17 23.219 17 22.6667L15 22.6666ZM27 16C27 22.0751 22.0751 27 16 27V29C23.1797 29 29 23.1797 29 16H27ZM16 27C9.92487 27 5 22.0751 5 16H3C3 23.1797 8.8203 29 16 29V27ZM5 16C5 9.92487 9.92487 5 16 5V3C8.8203 3 3 8.8203 3 16H5ZM16 5C22.0751 5 27 9.92487 27 16H29C29 8.8203 23.1797 3 16 3V5ZM16 15C15.0653 15 14.2644 14.7456 13.7263 14.3869C13.1812 14.0235 13 13.6313 13 13.3333H11C11 14.5081 11.7142 15.4492 12.6169 16.051C13.5265 16.6574 14.7255 17 16 17V15ZM13 13.3333C13 13.0353 13.1812 12.6431 13.7263 12.2798C14.2644 11.921 15.0653 11.6667 16 11.6667V9.66667C14.7255 9.66667 13.5265 10.0092 12.6169 10.6157C11.7142 11.2174 11 12.1586 11 13.3333H13ZM16 11.6667C17.2739 11.6667 18.2563 12.133 18.7096 12.6554L20.2202 11.3446C19.2902 10.2728 17.6872 9.66667 16 9.66667V11.6667ZM16 17C16.9347 17 17.7357 17.2544 18.2737 17.6131C18.8188 17.9765 19 18.3687 19 18.6667H21C21 17.4919 20.2858 16.5508 19.3831 15.949C18.4735 15.3426 17.2745 15 16 15V17ZM15 9.33333V10.6667H17V9.33333H15ZM15 21.3333L15 22.6666L17 22.6667L17 21.3334L15 21.3333ZM16 20.3333C14.7261 20.3333 13.7437 19.8669 13.2905 19.3446L11.7799 20.6554C12.7099 21.7272 14.3128 22.3333 16 22.3333L16 20.3333ZM19 18.6667C19 18.9647 18.8188 19.3569 18.2738 19.7202C17.7357 20.079 16.9347 20.3333 16 20.3333V22.3333C17.2745 22.3333 18.4735 21.9908 19.3832 21.3843C20.2858 20.7826 21 19.8414 21 18.6667H19ZM15 10.6667L15 21.3333L17 21.3333L17 10.6667L15 10.6667Z" fill="white"/>
</svg>
