<svg width="32" height="32" viewBox="0 0 32 32" fill="none" xmlns="http://www.w3.org/2000/svg">
<path d="M23.5426 24.8758C19.377 29.0414 12.6233 29.0414 8.45769 24.8758C6.3749 22.793 5.3335 20.0632 5.3335 17.3333C5.33349 14.6035 6.37489 11.8736 8.45769 9.79084C8.45769 9.79084 9.33356 11.9999 12.0002 13.3333C12.0002 10.6666 12.6669 6.66661 15.9813 4C18.6668 6.66667 21.4551 7.70326 23.5426 9.79084C25.6254 11.8736 26.6668 14.6035 26.6668 17.3333C26.6668 20.0632 25.6254 22.793 23.5426 24.8758Z" stroke="white" stroke-width="2" stroke-linecap="round" stroke-linejoin="round"/>
<path d="M13.1717 21.495C14.7338 23.0571 17.2665 23.0571 18.8286 21.495C19.6096 20.714 20.0002 19.6903 20.0002 18.6667C20.0002 17.6429 19.6097 16.6192 18.8286 15.8382C18.0525 15.0621 17.0368 14.6716 16.0196 14.6667L14.6668 18.6666L12.0002 18.6667C12.0002 19.6903 12.3907 20.714 13.1717 21.495Z" stroke="white" stroke-width="2" stroke-linecap="round" stroke-linejoin="round"/>
</svg>
