<svg width="32" height="32" viewBox="0 0 32 32" fill="none" xmlns="http://www.w3.org/2000/svg">
<path d="M13.3335 13.3333H6.98163C4.99928 13.3333 3.70996 15.4195 4.59649 17.1926L9.26316 26.5259C9.71487 27.4293 10.6382 28 11.6483 28H17.0053C17.2233 28 17.4405 27.9733 17.652 27.9204L22.6669 26.6667M13.3335 13.3333V6.66667C13.3335 5.19391 14.5274 4 16.0002 4H16.1275C16.7936 4 17.3335 4.53996 17.3335 5.20603C17.3335 6.15844 17.6155 7.08954 18.1438 7.88199L22.6669 14.6667V26.6667M13.3335 13.3333H16.0002M22.6669 26.6667H25.3335C26.8063 26.6667 28.0002 25.4728 28.0002 24V16C28.0002 14.5272 26.8063 13.3333 25.3335 13.3333H22.0002" stroke="white" stroke-width="2" stroke-linecap="round" stroke-linejoin="round"/>
</svg>
