<svg width="40" height="41" viewBox="0 0 40 41" fill="none" xmlns="http://www.w3.org/2000/svg">
<rect y="0.5" width="40" height="40" rx="20" fill="#25295F"/>
<path d="M27.9268 12.5625C25.9512 10.5937 23.3171 9.5 20.5366 9.5C14.7561 9.5 10.0732 14.1667 10.0732 19.9271C10.0732 21.75 10.5854 23.5729 11.4634 25.1042L10 30.5L15.561 29.0417C17.0976 29.8438 18.7805 30.2812 20.5366 30.2812C26.3171 30.2812 31 25.6146 31 19.8542C30.9268 17.1563 29.9024 14.5312 27.9268 12.5625ZM25.5854 23.6458C25.3659 24.2292 24.3415 24.8125 23.8293 24.8854C23.3902 24.9583 22.8049 24.9583 22.2195 24.8125C21.8537 24.6667 21.3415 24.5208 20.7561 24.2292C18.122 23.1354 16.439 20.5104 16.2927 20.2917C16.1463 20.1458 15.1951 18.9062 15.1951 17.5937C15.1951 16.2812 15.8537 15.6979 16.0732 15.4062C16.2927 15.1146 16.5854 15.1146 16.8049 15.1146C16.9512 15.1146 17.1707 15.1146 17.3171 15.1146C17.4634 15.1146 17.6829 15.0417 17.9024 15.5521C18.122 16.0625 18.6341 17.375 18.7073 17.4479C18.7805 17.5938 18.7805 17.7396 18.7073 17.8854C18.6341 18.0312 18.561 18.1771 18.4146 18.3229C18.2683 18.4687 18.1219 18.6875 18.0488 18.7604C17.9024 18.9062 17.7561 19.0521 17.9024 19.2708C18.0488 19.5625 18.561 20.3646 19.3659 21.0937C20.3902 21.9687 21.1951 22.2604 21.4878 22.4063C21.7805 22.5521 21.9268 22.4792 22.0732 22.3333C22.2195 22.1875 22.7317 21.6042 22.878 21.3125C23.0244 21.0208 23.2439 21.0938 23.4634 21.1667C23.6829 21.2396 25 21.8958 25.2195 22.0417C25.5122 22.1875 25.6585 22.2604 25.7317 22.3333C25.8049 22.5521 25.8049 23.0625 25.5854 23.6458Z" fill="white"/>
</svg>
