<svg width="40" height="40" viewBox="0 0 40 40" fill="none" xmlns="http://www.w3.org/2000/svg">
<path d="M10 11.25C10 10.5596 10.5596 10 11.25 10H13.9411C14.5521 10 15.0736 10.4418 15.1741 11.0445L16.0982 16.5893C16.1884 17.1306 15.9151 17.6675 15.4242 17.9129L13.4891 18.8805C14.8844 22.3479 17.6521 25.1156 21.1195 26.5109L22.0871 24.5758C22.3325 24.0849 22.8694 23.8116 23.4107 23.9018L28.9555 24.8259C29.5582 24.9264 30 25.4479 30 26.0589V28.75C30 29.4404 29.4404 30 28.75 30H26.25C17.2754 30 10 22.7246 10 13.75V11.25Z" fill="white"/>
</svg>
