<svg width="594" height="368" viewBox="0 0 594 368" fill="none" xmlns="http://www.w3.org/2000/svg">
<path fill-rule="evenodd" clip-rule="evenodd" d="M129.206 1L0 130.207L141.794 272L271 142.793L129.206 1ZM133.881 41.945L151.283 59.3628L128.488 82.1547L111.086 64.7719L133.881 41.945ZM40.9678 134.863L63.7802 112.054L81.1652 129.437L58.3528 152.264L40.9678 134.863ZM79.9572 173.865L102.77 151.073L120.172 168.456L97.3422 191.265L79.9572 173.865ZM136.367 230.25L118.964 212.85L141.794 190.058L159.179 207.44L136.367 230.25ZM150.058 103.774L172.887 80.9643L190.273 98.3646L167.443 121.157L150.058 103.774ZM189.099 142.758L211.894 119.966L229.297 137.349L206.485 160.141L189.099 142.758Z" fill="#25295F"/>
<path fill-rule="evenodd" clip-rule="evenodd" d="M464.605 0L168 297.691L238.421 368H356.071L594 129.189L464.605 0ZM460.713 41.7096L483.538 64.5335L466.13 81.9139L443.305 59.125L460.713 41.7096ZM421.672 80.7237L444.497 103.53L427.089 120.911L404.246 98.1217L421.672 80.7237ZM382.595 119.72L405.456 142.509L388.03 159.89L365.187 137.101L382.595 119.72ZM343.537 158.699L366.414 181.506L348.989 198.904L326.146 176.08L343.537 158.699ZM231.83 315.859L208.97 293.052L226.395 275.654L249.238 298.461L231.83 315.859ZM270.871 276.88L248.028 254.056L265.419 236.693L288.262 259.482L270.871 276.88ZM287.07 215.077L304.495 197.679L327.338 220.502L309.912 237.883L287.07 215.077ZM341.065 346.979L318.222 324.173L335.613 306.775L358.49 329.598L341.065 346.979ZM380.141 307.965L357.281 285.158L374.706 267.76L397.549 290.602L380.141 307.965ZM419.165 268.986L396.322 246.179L413.748 228.781L436.59 251.588L419.165 268.986ZM458.241 229.989L435.381 207.183L452.789 189.802L475.649 212.591L458.241 229.989ZM497.265 191.01L474.422 168.204L491.848 150.823L514.69 173.612L497.265 191.01ZM513.498 129.189L530.924 111.809L553.749 134.615L536.341 152.013L513.498 129.189Z" fill="url(#paint0_linear_489_19273)"/>
<defs>
<linearGradient id="paint0_linear_489_19273" x1="381" y1="0" x2="381" y2="368" gradientUnits="userSpaceOnUse">
<stop offset="0.485" stop-color="#8B2B87"/>
<stop offset="1" stop-color="#250B24" stop-opacity="0"/>
</linearGradient>
</defs>
</svg>
