<svg width="324" height="1075" viewBox="0 0 324 1075" fill="none" xmlns="http://www.w3.org/2000/svg">
<g opacity="0.4">
<path d="M316.051 659.714C316.493 668.202 317.053 676.617 317.496 685.106C317.716 688.933 317.935 692.761 318.185 696.779C318.249 697.991 318.312 699.204 318.405 700.606C318.562 703.221 318.718 705.836 318.875 708.451C318.968 709.854 318.974 711.52 319.067 712.922C319.194 715.348 319.29 717.583 319.416 720.008C319.54 721.601 319.545 723.267 319.669 724.859C319.765 727.095 319.861 729.33 319.988 731.755C320.111 733.348 320.117 735.014 320.24 736.606C320.337 738.841 320.433 741.077 320.529 743.312C320.652 744.905 320.658 746.571 320.782 748.163C320.878 750.399 320.974 752.634 321.07 754.87C321.194 756.462 321.199 758.128 321.323 759.72C321.449 762.145 321.545 764.381 321.554 766.88C321.647 768.283 321.653 769.949 321.746 771.351C321.903 773.966 321.911 776.466 322.068 779.081C322.131 780.293 322.224 781.696 322.169 782.982C322.329 786.43 322.37 789.953 322.529 793.401C322.59 793.78 322.502 794.044 322.562 794.423C322.664 798.325 322.766 802.227 322.837 805.939C322.9 807.151 322.845 808.438 322.908 809.651C322.947 812.34 322.986 815.029 323.142 817.644C323.117 819.12 323.211 820.523 323.216 822.189C323.225 824.688 323.321 826.923 323.329 829.423C323.335 831.089 323.458 832.681 323.434 834.157C323.53 836.393 323.508 838.702 323.486 841.012C323.492 842.678 323.497 844.344 323.621 845.936C323.599 848.246 323.695 850.481 323.673 852.791C323.679 854.457 323.684 856.123 323.69 857.789C323.668 860.099 323.764 862.334 323.742 864.644C323.747 866.31 323.753 867.976 323.728 869.452C323.706 871.762 323.715 874.261 323.811 876.497C323.786 877.973 323.792 879.639 323.885 881.042C323.893 883.541 323.932 886.23 323.94 888.729C323.915 890.205 323.979 891.418 323.954 892.894C323.965 896.227 323.976 899.559 323.987 902.891C323.96 903.535 324.02 903.914 323.993 904.557C323.976 908.533 323.96 912.509 323.944 916.484C324.007 917.697 323.922 918.794 323.867 920.08C323.905 922.769 323.826 925.532 323.776 928.485C323.752 929.961 323.757 931.628 323.732 933.104C323.741 935.603 323.719 937.913 323.609 940.486C323.615 942.152 323.62 943.818 323.595 945.295C323.574 947.604 323.582 950.103 323.56 952.413C323.565 954.079 323.571 955.745 323.458 957.485C323.437 959.795 323.415 962.104 323.393 964.413C323.398 966.08 323.286 967.82 323.291 969.486C323.269 971.795 323.247 974.105 323.138 976.678C323.143 978.344 323.031 980.084 323.036 981.75C323.014 984.06 322.904 986.633 322.882 988.943C322.888 990.609 322.776 992.349 322.751 993.825C322.641 996.398 322.68 999.087 322.57 1001.66C322.545 1003.14 322.52 1004.61 322.496 1006.09C322.389 1009.5 322.37 1012.64 322.263 1016.04C322.265 1016.88 322.238 1017.52 322.241 1018.35C322.106 1022.4 322.002 1026.64 321.867 1030.69C321.812 1031.98 321.727 1033.08 321.791 1034.29C321.681 1036.86 321.571 1039.43 321.579 1041.93L267.111 1075C271.249 949.274 270.071 835.016 263.233 717.834C262.791 709.345 262.231 700.931 261.788 692.442C257.203 612.25 252.431 529.253 237.438 441.595C225.703 372.768 203.837 308.823 181.757 278.614C178.786 274.631 176.053 271.333 173.293 268.678C173.939 267.022 174.702 265.292 175.378 263.825L179.038 261.533C178.415 260.88 177.703 260.49 177.11 260.027C177.404 259.426 177.698 258.824 177.992 258.223C180.334 259.887 182.737 261.93 185.231 264.542L220.155 243.298C211.546 234.08 203.667 231.083 196.483 232.451L192.941 234.67C193.265 234.258 193.737 233.962 194.061 233.551L195.242 232.811C195.006 232.959 194.858 232.843 194.622 232.991C194.858 232.843 195.182 232.432 195.418 232.284C195.772 232.062 196.157 232.03 196.511 231.808L202.445 228.3C201.588 228.628 200.583 228.84 199.757 229.358L197.395 230.837C197.749 230.615 198.104 230.393 198.428 229.982C198.782 229.76 199.136 229.538 199.49 229.316C210.148 222.851 222.376 226.254 236.492 245.59C258.571 275.799 280.437 339.744 292.173 408.571C306.812 496.451 311.466 579.522 316.051 659.714ZM312.195 629.78L306.26 633.287C306.508 636.472 306.606 639.54 306.854 642.725L312.788 639.217C312.659 635.959 312.412 632.775 312.195 629.78ZM314.211 898.578C314.166 876.275 313.886 854.12 313.487 832.038L278.563 853.282C278.961 875.364 279.242 897.519 279.286 919.823L314.211 898.578ZM279.24 923.609C279.284 945.912 279.123 968.553 278.755 991.532L313.68 970.287C314.047 947.308 314.239 924.857 314.164 902.364L279.24 923.609ZM313.416 828.326C312.899 806.319 312.264 784.385 311.481 762.336L276.556 783.58C277.458 805.555 278.092 827.489 278.491 849.57L313.416 828.326ZM311.291 758.698C310.39 736.722 309.371 714.821 308.055 692.687L273.13 713.932C274.416 735.875 275.466 757.966 276.367 779.942L311.291 758.698ZM307.805 688.67C307.365 681.014 306.896 673.169 306.456 665.514C305.483 648.8 304.511 632.087 303.478 614.994L268.553 636.239C269.556 653.142 270.559 670.045 271.531 686.758C272.001 694.603 272.441 702.259 272.88 709.914L307.805 688.67ZM236.602 385.769L271.527 364.524C265.051 338.526 257.191 314.439 248.9 294.169L213.975 315.414C222.266 335.683 230.096 359.581 236.602 385.769ZM221.964 342.76L216.03 346.267C217.016 349.198 218.002 352.128 219.018 355.248L224.952 351.741C223.936 348.621 222.95 345.69 221.964 342.76ZM216.56 327.57L210.625 331.077C211.699 333.744 212.685 336.674 213.671 339.605L219.605 336.097C218.619 333.167 217.633 330.236 216.56 327.57ZM214.113 321.171C213.039 318.504 211.965 315.838 210.922 313.361L204.987 316.868C206.031 319.345 207.105 322.012 208.179 324.679L214.113 321.171ZM208.447 307.605C207.404 305.128 206.242 302.725 205.111 300.512L199.176 304.02C200.308 306.233 201.351 308.71 202.513 311.113L208.447 307.605ZM223.983 371.757L229.918 368.25C229.02 365.055 228.122 361.861 227.105 358.741L221.171 362.248C222.069 365.442 223.085 368.563 223.983 371.757ZM237.682 390.102C241.34 404.924 244.438 420.307 247.181 435.911C249.173 447.604 250.985 458.99 252.562 470.525L287.486 449.281C285.792 437.82 284.067 426.169 282.106 414.667C279.48 398.988 276.264 383.68 272.606 368.857L237.682 390.102ZM253.257 474.89C256.923 501.187 259.849 526.903 262.211 552.347L297.135 531.102C294.773 505.659 291.818 479.752 288.181 453.646L253.257 474.89ZM262.551 556.934C264.914 582.377 266.683 607.357 268.185 632.295L303.11 611.051C301.489 586.187 299.72 561.207 297.476 535.689L262.551 556.934ZM311.192 612.877L305.258 616.384C305.505 619.569 305.604 622.637 305.851 625.822L311.785 622.314C311.568 619.32 311.439 616.061 311.192 612.877ZM310.189 595.974L304.255 599.481C304.502 602.666 304.631 605.924 304.848 608.919L310.782 605.411C310.565 602.417 310.318 599.232 310.189 595.974ZM308.92 579.029L302.986 582.536C303.233 585.721 303.48 588.905 303.609 592.163L309.544 588.656C309.414 585.398 309.167 582.213 308.92 579.029ZM307.769 562.01L301.835 565.517C302.082 568.702 302.329 571.886 302.576 575.071L308.511 571.563C308.145 568.453 308.016 565.194 307.769 562.01ZM306.321 544.759L300.387 548.267C300.634 551.451 300.912 554.825 301.159 558.01L307.093 554.502C306.846 551.318 306.599 548.133 306.321 544.759ZM304.756 527.583L298.821 531.09C299.099 534.464 299.464 537.575 299.711 540.759L305.646 537.252C305.398 534.067 305.151 530.883 304.756 527.583ZM303.16 510.216L297.225 513.724C297.621 517.024 297.868 520.208 298.146 523.582L304.08 520.075C303.802 516.701 303.407 513.401 303.16 510.216ZM301.267 492.618L295.333 496.125C295.729 499.426 296.124 502.726 296.402 506.1L302.336 502.593C301.94 499.292 301.663 495.918 301.267 492.618ZM299.257 475.094L293.323 478.601C293.718 481.902 294.113 485.202 294.509 488.502L300.443 484.995C300.048 481.694 299.652 478.394 299.257 475.094ZM296.95 457.338L291.015 460.845C291.411 464.146 291.955 467.562 292.35 470.862L298.284 467.355C297.771 464.128 297.345 460.638 296.95 457.338ZM294.376 439.54L288.442 443.048C288.986 446.464 289.381 449.764 289.925 453.18L295.859 449.673C295.315 446.257 294.89 442.767 294.376 439.54ZM291.624 421.437L285.69 424.944C286.234 428.36 286.777 431.777 287.291 435.003L293.225 431.495C292.712 428.269 292.168 424.853 291.624 421.437ZM288.457 403.176L282.523 406.683C282.886 408.961 283.396 411.354 283.759 413.631C283.94 414.77 284.122 415.909 284.333 417.237L290.267 413.73C290.086 412.591 289.905 411.452 289.693 410.124C289.331 407.846 288.938 405.379 288.457 403.176ZM284.846 384.567L278.912 388.075C279.604 391.606 280.414 395.065 280.958 398.481L286.892 394.973C286.2 391.441 285.538 388.099 284.846 384.567ZM280.792 366.444L274.858 369.952C275.668 373.41 276.448 376.678 277.258 380.136L283.192 376.628C282.382 373.17 281.572 369.712 280.792 366.444ZM276.296 348.807L270.362 352.314C271.26 355.508 272.04 358.777 272.968 362.161L278.903 358.653C277.974 355.269 277.194 352.001 276.296 348.807ZM271.389 331.844L265.454 335.352C266.352 338.546 267.369 341.667 268.267 344.861L274.201 341.353C273.303 338.159 272.405 334.965 271.389 331.844ZM266.248 315.863L260.313 319.371C261.299 322.301 262.285 325.232 263.301 328.352L269.236 324.845C268.219 321.724 267.233 318.794 266.248 315.863ZM260.843 300.673L254.909 304.181C255.982 306.848 256.968 309.778 257.954 312.709L263.888 309.201C262.903 306.271 261.917 303.34 260.843 300.673ZM255.235 286.654L249.301 290.162C250.344 292.639 251.418 295.305 252.492 297.972L258.426 294.465C257.352 291.798 256.279 289.131 255.235 286.654ZM249.424 273.806L243.49 277.313C244.621 279.526 245.665 282.003 246.826 284.406L252.761 280.899C251.717 278.422 250.555 276.019 249.424 273.806ZM243.558 262.244L237.624 265.751C238.725 267.775 239.856 269.988 240.958 272.011L246.892 268.504C245.791 266.48 244.659 264.267 243.558 262.244ZM237.549 252.232L231.615 255.74C232.804 257.499 233.875 259.333 234.946 261.167L240.88 257.659C239.809 255.826 238.738 253.992 237.549 252.232ZM231.516 243.697L225.582 247.204C226.414 248.353 227.216 249.312 228.078 250.65C228.405 251.072 228.613 251.567 228.91 251.799L234.844 248.291C234.517 247.87 234.309 247.374 234.012 247.143C233.18 245.994 232.348 244.845 231.516 243.697ZM225.548 237.207L219.614 240.715C220.682 241.716 221.781 242.906 222.91 244.286L228.844 240.779C227.833 239.325 226.765 238.324 225.548 237.207ZM201.124 231.423L207.059 227.916C206.141 227.864 205.136 228.076 204.249 228.214L198.315 231.722C199.32 231.51 200.237 231.561 201.124 231.423ZM206.304 232.145L212.238 228.638C211.29 228.396 210.343 228.155 209.278 227.987L203.343 231.495C204.291 231.736 205.356 231.904 206.304 232.145ZM211.606 234.46L217.541 230.952C216.533 230.331 215.555 229.9 214.459 229.542L208.525 233.05C209.621 233.407 210.599 233.839 211.606 234.46ZM223.115 234.974C222.047 233.974 221.009 233.163 220.001 232.542L214.067 236.049C215.105 236.86 216.143 237.671 217.181 238.482L223.115 234.974ZM186.332 266.566C188.054 268.409 189.718 270.706 191.5 272.93C198.632 282.655 205.835 296.093 212.545 312.136L247.469 290.891C240.642 274.922 233.587 261.601 226.425 251.685C224.73 249.198 222.978 247.165 221.256 245.321L186.332 266.566ZM184.53 267.485C183.432 266.295 182.334 265.104 181.235 263.914L175.301 267.421C176.369 268.422 177.468 269.612 178.596 270.993L184.53 267.485ZM184.657 278.885L190.591 275.377C190.265 274.956 190.056 274.46 189.759 274.229C188.927 273.08 188.095 271.931 187.263 270.783L181.329 274.29C182.161 275.439 182.963 276.398 183.825 277.736C184.122 277.968 184.448 278.389 184.657 278.885ZM190.663 288.063L196.597 284.556C195.526 282.722 194.307 280.772 193.266 279.128L187.332 282.636C188.403 284.47 189.592 286.229 190.663 288.063ZM196.674 298.908L202.609 295.4C201.477 293.187 200.376 291.163 199.275 289.14L193.341 292.647C194.442 294.671 195.573 296.884 196.674 298.908ZM228.567 389.131L234.501 385.623C233.721 382.355 232.793 378.971 231.895 375.777L225.961 379.284C226.859 382.479 227.787 385.863 228.567 389.131ZM232.857 407.106L238.791 403.599C237.981 400.141 237.201 396.872 236.391 393.414L230.457 396.922C231.355 400.116 232.047 403.648 232.857 407.106ZM236.674 425.377L242.609 421.869C241.917 418.338 241.225 414.806 240.563 411.463L234.628 414.971C235.321 418.503 236.013 422.035 236.674 425.377ZM240.05 444.133L245.984 440.626C245.803 439.487 245.622 438.349 245.41 437.02C245.048 434.743 244.537 432.349 244.174 430.072L238.24 433.579C238.603 435.857 239.113 438.25 239.476 440.528C239.657 441.666 239.869 442.995 240.05 444.133ZM242.92 462.163L248.854 458.655C248.31 455.239 247.767 451.823 247.253 448.597L241.319 452.104C241.95 455.257 242.494 458.673 242.92 462.163ZM245.642 480.076L251.576 476.569C251.062 473.343 250.637 469.853 250.093 466.437L244.159 469.944C244.702 473.36 245.098 476.66 245.642 480.076ZM247.949 497.832L253.883 494.325C253.488 491.025 253.062 487.535 252.548 484.308L246.614 487.816C247.128 491.042 247.553 494.532 247.949 497.832ZM250.108 515.472L256.042 511.965C255.647 508.665 255.251 505.364 254.856 502.064L248.921 505.571C249.317 508.872 249.712 512.172 250.108 515.472ZM252.118 532.996L258.053 529.489C257.657 526.189 257.38 522.815 256.984 519.514L251.05 523.022C251.327 526.396 251.723 529.696 252.118 532.996ZM253.863 550.479L259.797 546.971C259.519 543.597 259.154 540.487 258.877 537.112L252.942 540.62C253.22 543.994 253.585 547.105 253.863 550.479ZM255.458 567.845L261.393 564.338C261.145 561.153 260.868 557.779 260.503 554.669L254.568 558.176C254.934 561.287 255.181 564.471 255.458 567.845ZM256.876 584.906L262.81 581.399C262.563 578.214 262.316 575.03 262.038 571.656L256.104 575.163C256.381 578.537 256.629 581.722 256.876 584.906ZM258.175 602.041L264.109 598.533C263.862 595.349 263.615 592.164 263.368 588.98L257.433 592.487C257.681 595.672 257.928 598.856 258.175 602.041ZM259.444 618.986L265.379 615.478C265.131 612.294 264.884 609.109 264.755 605.851L258.821 609.359C258.98 612.807 259.227 615.991 259.444 618.986ZM260.477 636.079L266.411 632.571C266.164 629.387 266.035 626.128 265.818 623.134L259.884 626.641C260.101 629.636 260.348 632.82 260.477 636.079ZM261.598 652.908L267.532 649.4C267.285 646.216 267.186 643.147 266.939 639.963L261.005 643.47C261.222 646.465 261.351 649.723 261.598 652.908ZM262.57 669.621L268.505 666.114C268.258 662.929 268.159 659.861 267.911 656.676L261.977 660.184C262.224 663.368 262.323 666.437 262.57 669.621ZM263.543 686.334L269.477 682.827C269.26 679.832 269.131 676.574 268.884 673.389L262.95 676.897C263.197 680.081 263.296 683.15 263.543 686.334ZM264.485 702.858L270.42 699.35C270.172 696.166 270.073 693.097 269.826 689.913L263.892 693.42C264.139 696.605 264.268 699.863 264.485 702.858ZM265.397 719.192L271.332 715.684C271.329 714.851 271.208 714.092 271.205 713.259C271.109 711.023 270.895 708.862 270.799 706.626L264.864 710.134C264.961 712.369 265.175 714.531 265.271 716.766C265.304 717.789 265.395 718.359 265.397 719.192ZM266.246 734.313L272.181 730.805C271.994 728 271.925 725.122 271.738 722.317L265.804 725.824C265.991 728.629 266.06 731.508 266.246 734.313ZM267.065 749.244L272.999 745.737C272.812 742.932 272.744 740.053 272.557 737.248L266.623 740.755C266.809 743.56 266.878 746.439 267.065 749.244ZM267.735 764.059L273.67 760.552C273.483 757.747 273.414 754.868 273.227 752.063L267.293 755.571C267.51 758.566 267.549 761.255 267.735 764.059ZM268.436 779.065L274.37 775.557C274.302 772.678 274.115 769.874 274.076 767.185L268.142 770.692C268.18 773.381 268.249 776.26 268.436 779.065ZM268.988 793.954L274.923 790.447C274.854 787.568 274.667 784.763 274.629 782.074L268.694 785.582C268.763 788.46 268.92 791.075 268.988 793.954ZM269.541 808.844L275.475 805.336C275.406 802.457 275.25 799.842 275.181 796.963L269.247 800.471C269.315 803.35 269.354 806.039 269.541 808.844ZM269.975 823.807L275.909 820.299C275.84 817.421 275.802 814.732 275.615 811.927L269.681 815.434C269.868 818.239 269.906 820.928 269.975 823.807ZM270.409 838.77L276.343 835.263C276.275 832.384 276.236 829.695 276.167 826.816L270.233 830.324C270.302 833.202 270.34 835.892 270.409 838.77ZM270.725 853.808L276.659 850.3C276.591 847.421 276.552 844.732 276.484 841.854L270.549 845.361C270.588 848.05 270.657 850.929 270.725 853.808ZM271.041 868.845L276.976 865.338C276.907 862.459 276.868 859.77 276.8 856.891L270.865 860.398C270.904 863.087 270.973 865.966 271.041 868.845ZM271.209 883.766L277.144 880.259C277.075 877.38 277.036 874.691 276.968 871.812L271.033 875.32C271.22 878.125 271.171 881.077 271.209 883.766ZM271.407 898.878L277.342 895.37C277.273 892.491 277.352 889.728 277.284 886.85L271.349 890.357C271.418 893.236 271.339 895.999 271.407 898.878ZM271.487 914.063L277.422 910.555C277.353 907.677 277.432 904.914 277.364 902.035L271.429 905.542C271.498 908.421 271.537 911.11 271.487 914.063ZM271.567 929.248L277.502 925.741C277.433 922.862 277.512 920.099 277.444 917.22L271.509 920.727C271.578 923.606 271.499 926.369 271.567 929.248ZM271.529 944.507L277.463 941C277.513 938.047 277.474 935.358 277.524 932.405L271.589 935.913C271.54 938.865 271.579 941.554 271.529 944.507ZM271.491 959.766L277.425 956.259C277.475 953.306 277.406 950.427 277.486 947.664L271.551 951.172C271.502 954.125 271.453 957.077 271.491 959.766ZM271.365 975.289L277.299 971.782C277.349 968.829 277.398 965.876 277.36 963.187L271.425 966.695C271.346 969.458 271.415 972.336 271.365 975.289ZM271.091 990.696L277.025 987.189C277.075 984.236 277.124 981.283 277.173 978.33L271.239 981.838C271.22 984.981 271.171 987.933 271.091 990.696ZM270.847 1006.29L276.781 1002.79C276.831 999.833 276.88 996.88 276.929 993.927L270.995 997.435C270.946 1000.39 270.896 1003.34 270.847 1006.29ZM270.633 1022.08L276.567 1018.57C276.617 1015.62 276.666 1012.67 276.715 1009.71L270.781 1013.22C270.732 1016.17 270.682 1019.13 270.633 1022.08ZM270.271 1037.75L276.205 1034.24C276.255 1031.29 276.304 1028.34 276.471 1025.31L270.537 1028.82C270.37 1031.84 270.32 1034.8 270.271 1037.75ZM269.821 1053.68L275.755 1050.18C275.805 1047.22 275.972 1044.2 276.021 1041.25L270.087 1044.75C269.92 1047.78 269.87 1050.73 269.821 1053.68ZM275.187 1066.19C275.237 1063.23 275.404 1060.21 275.453 1057.25L269.519 1060.76C269.47 1063.71 269.302 1066.74 269.253 1069.69L275.187 1066.19ZM311.883 1043.83C312.662 1020.18 313.236 996.862 313.633 974.073L278.709 995.317C278.341 1018.3 277.738 1041.42 276.958 1065.08L311.883 1043.83ZM319.855 1030.28L313.92 1033.79C313.871 1036.74 313.703 1039.77 313.654 1042.72L319.588 1039.22C319.638 1036.26 319.805 1033.24 319.855 1030.28ZM320.305 1014.35L314.37 1017.86C314.321 1020.81 314.153 1023.84 314.104 1026.79L320.038 1023.28C320.088 1020.33 320.255 1017.3 320.305 1014.35ZM320.636 998.488L314.702 1002C314.653 1004.95 314.603 1007.9 314.436 1010.93L320.37 1007.42C320.538 1004.39 320.587 1001.44 320.636 998.488ZM320.999 982.818L315.064 986.325C315.015 989.278 314.966 992.231 314.916 995.183L320.85 991.676C320.87 988.533 320.919 985.581 320.999 982.818ZM321.33 966.957L315.396 970.465C315.347 973.417 315.297 976.37 315.248 979.323L321.182 975.815C321.232 972.863 321.281 969.91 321.33 966.957ZM321.487 951.624L315.552 955.132C315.503 958.084 315.454 961.037 315.404 963.99L321.339 960.482C321.476 957.266 321.437 954.577 321.487 951.624ZM321.613 936.101L315.678 939.609C315.629 942.561 315.58 945.514 315.618 948.203L321.552 944.696C321.632 941.933 321.681 938.98 321.613 936.101ZM321.769 920.768L315.834 924.276C315.785 927.228 315.854 930.107 315.774 932.87L321.709 929.363C321.758 926.41 321.719 923.721 321.769 920.768ZM321.807 905.509L315.873 909.016C315.823 911.969 315.862 914.658 315.812 917.611L321.747 914.103C321.796 911.151 321.845 908.198 321.807 905.509ZM321.845 890.25L315.911 893.757C315.979 896.636 315.9 899.399 315.969 902.278L321.903 898.77C321.834 895.892 321.765 893.013 321.845 890.25ZM321.765 875.065L315.831 878.572C315.899 881.451 315.82 884.214 315.889 887.093L321.823 883.585C321.754 880.706 321.685 877.828 321.765 875.065ZM321.567 859.953L315.633 863.461C315.701 866.34 315.74 869.029 315.69 871.981L321.625 868.474C321.674 865.521 321.636 862.832 321.567 859.953ZM321.369 844.842L315.434 848.35C315.503 851.228 315.542 853.917 315.611 856.796L321.545 853.289C321.506 850.6 321.437 847.721 321.369 844.842ZM321.053 829.805L315.118 833.312C315.187 836.191 315.226 838.88 315.294 841.759L321.229 838.251C321.19 835.562 321.121 832.684 321.053 829.805ZM320.767 814.957L314.832 818.465C314.901 821.344 314.94 824.033 315.008 826.911L320.943 823.404C320.874 820.525 320.805 817.646 320.767 814.957ZM320.451 799.92L314.516 803.427C314.585 806.306 314.623 808.995 314.692 811.874L320.626 808.367C320.558 805.488 320.489 802.609 320.451 799.92ZM320.016 784.957L314.082 788.464C314.151 791.343 314.189 794.032 314.376 796.837L320.31 793.329C320.124 790.524 320.085 787.835 320.016 784.957ZM319.464 770.067L313.53 773.575C313.598 776.453 313.755 779.069 313.824 781.947L319.758 778.44C319.689 775.561 319.533 772.946 319.464 770.067ZM318.912 755.178L312.977 758.685C313.046 761.564 313.233 764.369 313.271 767.058L319.206 763.55C319.137 760.672 318.95 757.867 318.912 755.178ZM318.329 740.099L312.395 743.606C312.582 746.411 312.65 749.29 312.689 751.979L318.623 748.471C318.585 745.782 318.398 742.977 318.329 740.099ZM317.659 725.283L311.725 728.791C311.911 731.595 311.98 734.474 312.167 737.279L318.101 733.772C317.884 730.777 317.697 727.972 317.659 725.283ZM316.84 710.352L310.906 713.859C311.093 716.664 311.161 719.543 311.348 722.348L317.282 718.84C317.096 716.035 317.027 713.157 316.84 710.352ZM316.021 695.421L310.087 698.928C310.274 701.733 310.461 704.538 310.529 707.416L316.464 703.909C316.395 701.03 316.208 698.225 316.021 695.421ZM315.082 679.73L309.148 683.237C309.244 685.473 309.458 687.635 309.554 689.87C309.557 690.703 309.678 691.462 309.681 692.295L315.615 688.788C315.612 687.955 315.491 687.196 315.488 686.363C315.392 684.127 315.296 681.892 315.082 679.73ZM314.109 663.017L308.175 666.524C308.422 669.709 308.521 672.777 308.768 675.962L314.703 672.454C314.486 669.459 314.357 666.201 314.109 663.017ZM313.73 655.741C313.513 652.746 313.384 649.488 313.137 646.303L307.203 649.811C307.45 652.995 307.549 656.064 307.796 659.248L313.73 655.741Z" fill="#63035F"/>
<path d="M168.228 264.882C168.989 263.147 169.898 261.528 170.689 259.983L167.742 261.828C166.734 261.2 165.757 260.762 164.662 260.399L170.587 256.898C171.12 256.984 171.565 257.336 172.127 257.613C172.42 257.01 172.626 256.671 172.919 256.068C172.059 255.556 171.112 255.31 170.283 254.989L160.468 260.926C162.894 261.506 165.559 262.776 168.228 264.882Z" fill="#63035F"/>
<path d="M147.288 261.304C146.928 261.53 146.567 261.756 146.206 261.982C146.086 262.057 146.086 262.057 145.966 262.132C146.447 261.831 146.807 261.605 147.288 261.304L151.047 259.16C151.407 258.934 151.888 258.633 152.249 258.407C152.61 258.181 152.851 258.03 153.211 257.804L147.649 261.078C147.529 261.153 147.409 261.229 147.288 261.304Z" fill="#63035F"/>
<path d="M151.863 258.287L146.541 261.41C146.902 261.184 147.383 260.882 147.744 260.656L151.863 258.287Z" fill="#63035F"/>
<path d="M153.034 257.366L152.797 257.514C152.915 257.44 152.915 257.44 153.034 257.366Z" fill="#63035F"/>
<path d="M175.813 259.682C176.107 259.08 176.401 258.478 176.577 257.951C176.31 257.909 176.132 257.603 175.865 257.561L171.257 260.447C170.875 261.313 170.375 262.252 169.993 263.118L175.813 259.682Z" fill="#63035F"/>
<path d="M173.225 265.477L172.989 265.625C172.81 265.319 172.543 265.277 172.395 265.161L170.15 266.567C170.743 267.031 171.485 267.61 172.109 268.264C172.461 267.208 172.843 266.342 173.225 265.477Z" fill="#63035F"/>
<path d="M169.527 247.954C171.299 246.844 173.072 245.734 174.875 244.814L155.552 256.496C159.688 253.906 163.855 251.506 167.99 248.916L169.527 247.954Z" fill="#63035F"/>
<path d="M172.96 257.29L174.142 256.55C173.875 256.508 173.727 256.392 173.461 256.35C173.342 256.424 173.136 256.762 172.96 257.29Z" fill="#63035F"/>
<path d="M190.686 236.377C191.128 235.891 191.601 235.595 191.925 235.184L185.987 238.694C185.544 239.179 185.071 239.475 184.747 239.887L190.686 236.377Z" fill="#63035F"/>
<path d="M170.615 263.772C170.467 263.656 170.17 263.425 170.022 263.309C169.816 263.647 169.64 264.174 169.434 264.512L170.615 263.772Z" fill="#63035F"/>
<path d="M160.047 254.52L184.096 239.877C183.653 240.363 183.299 240.585 182.974 240.997L161.289 254.16C163.685 253.703 166.291 253.742 168.868 254.425L167.096 255.535C166.414 255.335 165.733 255.136 164.963 255.2L159.025 258.71C159.676 258.72 160.357 258.919 161.157 259.045L158.912 260.451C155.683 259.758 152.575 259.825 149.587 260.652C149.942 260.43 150.266 260.018 150.621 259.796C151.005 259.764 151.478 259.468 151.863 259.436L157.802 255.926C156.944 256.254 155.938 256.466 155.111 256.984L152.393 258.686C152.748 258.464 153.22 258.168 153.545 257.756C153.899 257.534 154.254 257.312 154.608 257.09C156.351 255.79 158.184 255.06 160.047 254.52ZM160.019 255.163L154.081 258.674C154.968 258.535 155.974 258.323 156.892 258.375L162.831 254.865C161.825 255.077 160.907 255.025 160.019 255.163Z" fill="#63035F"/>
<path d="M186.101 237.786C187.282 237.046 188.464 236.306 189.646 235.566L180.753 240.925C182.438 240.08 184.21 238.97 186.101 237.786Z" fill="#63035F"/>
<path d="M191.331 234.719C190.976 234.941 190.621 235.163 190.267 235.385C190.74 235.089 191.212 234.793 191.715 234.688L195.024 232.616C195.378 232.394 195.851 232.098 196.206 231.876C196.56 231.654 196.796 231.506 197.151 231.284L191.685 234.497C191.567 234.571 191.449 234.645 191.331 234.719L189.676 235.755C190.149 235.459 190.74 235.089 191.331 234.719Z" fill="#63035F"/>
<path d="M90.3017 408.243C90.7112 406.734 91.0024 405.298 91.4119 403.789L89.1668 405.195C89.0788 405.459 89.1091 405.649 89.0211 405.913C89.8263 407.705 90.6314 409.498 91.5548 411.217L95.0997 408.997C94.9541 409.715 94.66 410.316 94.5144 411.034L96.2869 409.924C96.5205 408.942 96.754 407.961 97.1058 406.905C96.7486 406.294 96.3611 405.492 96.0918 404.617L90.3017 408.243Z" fill="#63035F"/>
<path d="M92.1562 395.389C91.9775 395.083 91.917 394.704 91.7685 394.588C91.7107 395.042 91.5345 395.569 91.4464 395.833L92.1562 395.389Z" fill="#63035F"/>
<path d="M115.529 427.947C115.883 427.725 116.326 427.239 116.65 426.827L114.877 427.937C114.199 428.571 113.638 429.131 112.929 429.575C113.165 429.427 113.402 429.279 113.668 429.32L119.607 425.81C119.134 426.106 118.631 426.212 118.159 426.508L115.529 427.947Z" fill="#63035F"/>
<path d="M87.5554 436.694C87.1734 437.56 86.6733 438.5 86.1731 439.439L76.3348 445.392C81.0396 435.763 84.843 422.105 88.2919 408.668C88.858 409.776 89.306 410.957 89.8419 411.874L89.2511 412.244C88.7537 414.018 88.2864 415.981 87.789 417.754L91.6887 415.312C92.4032 416.535 93.1176 417.758 93.8321 418.981C92.1338 424.639 90.375 429.917 88.5255 434.625L100.373 427.415C100.669 427.647 100.997 428.068 101.293 428.3L87.5554 436.694ZM84.92 427.486L90.8587 423.976C91.3561 422.203 91.9716 420.355 92.4691 418.582L86.5304 422.092C86.0632 424.055 85.5356 425.639 84.92 427.486ZM81.8997 436.268L87.8385 432.758C88.3661 431.175 89.0119 429.518 89.5396 427.934L83.6009 431.444C83.1035 433.218 82.5758 434.801 81.8997 436.268ZM86.4589 436.337L80.5202 439.847C79.8441 441.315 79.2863 442.708 78.6102 444.175L84.5489 440.665C85.225 439.198 85.7829 437.804 86.4589 436.337Z" fill="#63035F"/>
<path d="M107.73 423.018L101.791 426.528C102.088 426.759 102.415 427.181 102.712 427.413L108.65 423.903C108.354 423.671 108.057 423.439 107.73 423.018Z" fill="#63035F"/>
<path d="M77.1832 451.542C76.7105 451.838 76.1197 452.208 75.6168 452.314L77.1832 451.542C77.8317 450.718 78.6287 450.01 79.2772 449.186L73.3387 452.696C73.3387 452.696 73.3387 452.696 73.2205 452.77C72.8358 452.802 72.4511 452.834 72.0361 452.677C73.0969 451.177 74.0394 449.752 75.0397 447.872L84.8777 441.92C83.1135 445.531 80.4918 449.47 77.1832 451.542ZM75.048 450.373L80.9865 446.863C81.7229 445.775 82.3413 444.762 83.0475 443.484L77.109 446.994C76.4028 448.272 75.7844 449.285 75.048 450.373Z" fill="#63035F"/>
<path d="M197.239 231.019C196.885 231.241 196.53 231.463 196.176 231.685L197.239 231.019Z" fill="#63035F"/>
<path d="M175.235 264.218C174.589 265.875 173.795 267.417 173.149 269.074C163.165 293.703 155.481 324.618 149.227 348.999C148.262 352.736 147.358 356.852 146.217 361.116C140.465 385.392 132.96 416.612 122.179 423.99C122.061 424.064 121.825 424.212 121.707 424.286C121.234 424.582 120.643 424.952 120.14 425.058L121.322 424.318C122.119 423.61 122.798 422.976 123.564 422.078L117.744 425.514C117.359 425.547 117.093 425.505 116.708 425.537C118.742 422.802 120.418 419.455 122.27 415.58L110.541 422.716C110.244 422.484 109.917 422.063 109.62 421.831L123.122 413.585C127.909 402.025 131.913 386.362 135.241 372.166L100.291 393.426C99.5019 396.635 98.7132 399.844 97.9244 403.052C97.5672 402.441 97.2979 401.565 96.9406 400.954C97.0863 400.236 97.2319 399.518 97.4078 398.991L96.3443 399.657C95.9266 398.665 95.539 397.864 95.1213 396.872L98.4301 394.8C98.9275 393.027 99.2765 391.138 99.6558 389.439L93.7171 392.949C93.7473 393.139 93.6291 393.213 93.6593 393.403C93.2416 392.411 92.8239 391.42 92.5243 390.355C93.2251 387.41 93.9562 384.655 94.569 381.974C105.177 340.04 120.517 278.854 143.527 263.401C143.882 263.179 144.236 262.957 144.591 262.735L146.127 261.773C146.481 261.551 146.954 261.255 147.309 261.033L146.836 261.329C146.481 261.551 146.127 261.773 145.772 261.995C145.654 262.069 145.654 262.069 145.536 262.143C145.181 262.365 144.945 262.513 144.591 262.735L146.836 261.329L150.499 259.035C150.854 258.813 151.326 258.517 151.681 258.295C152.035 258.073 152.272 257.925 152.626 257.703L152.744 257.629C152.863 257.555 152.863 257.555 152.981 257.481L155.344 256.001C159.48 253.411 163.646 251.011 167.782 248.421L154.517 256.519C154.162 256.741 153.808 256.963 153.453 257.185C153.099 257.407 152.626 257.703 152.302 258.115C151.711 258.485 151.15 259.044 150.56 259.415C150.205 259.637 149.881 260.048 149.526 260.27C146.457 263.028 143.538 266.735 140.828 270.938L158.851 260.069L161.096 258.663L167.035 255.153L168.807 254.043L175.928 249.793C178.461 246.118 180.613 243.309 183.062 240.731C183.386 240.32 183.859 240.024 184.183 239.612C185.747 238.006 187.489 236.706 189.616 235.374L186.071 237.594C187.253 236.854 188.434 236.114 189.616 235.374C190.207 235.004 190.798 234.634 191.27 234.338C190.916 234.56 190.561 234.782 190.207 235.004C189.852 235.226 189.38 235.522 189.025 235.744L194.934 232.044C195.288 231.822 195.761 231.526 196.115 231.304C196.47 231.082 196.706 230.934 197.061 230.712L199.188 229.38C198.833 229.602 198.479 229.824 198.124 230.046C197.77 230.268 197.415 230.49 197.091 230.902C196.382 231.346 195.821 231.906 195.143 232.54C194.906 232.688 194.582 233.1 194.346 233.248C194.109 233.396 193.873 233.544 193.785 233.808C193.461 234.219 192.988 234.515 192.664 234.927C187.206 240.642 182.259 248.752 177.554 258.38C177.26 258.982 176.966 259.584 176.672 260.186C176.381 261.621 175.823 263.014 175.235 264.218ZM144.239 362.564L138.3 366.074C137.921 367.773 137.423 369.547 137.074 371.436L143.013 367.926C143.392 366.226 143.859 364.263 144.239 362.564ZM145.349 358.11C145.816 356.147 146.314 354.373 146.663 352.484L140.724 355.994C140.226 357.768 139.877 359.657 139.41 361.62L145.349 358.11ZM147.627 348.748C148.037 347.239 148.416 345.539 148.825 344.03L142.887 347.54C142.477 349.049 142.098 350.749 141.688 352.258L147.627 348.748ZM161.299 284.43C160.653 286.088 160.126 287.671 159.628 289.444L165.567 285.934C166.095 284.351 166.741 282.693 167.238 280.92L161.299 284.43ZM168.557 276.962C169.203 275.304 169.731 273.721 170.407 272.254L164.468 275.764C163.822 277.421 163.264 278.815 162.618 280.472L168.557 276.962ZM162.429 294.791C162.926 293.017 163.572 291.36 164.1 289.777L158.161 293.287C157.633 294.87 157.018 296.717 156.49 298.301L162.429 294.791ZM155.319 302.375C154.822 304.148 154.294 305.732 153.797 307.505L159.736 303.995C160.233 302.222 160.761 300.638 161.258 298.865L155.319 302.375ZM158.793 287.462L123.842 308.722C119.267 321.611 115.257 335.607 111.66 348.927L146.61 327.667C150.296 314.083 154.335 300.276 158.793 287.462ZM146.22 335.011L152.159 331.501C152.538 329.802 153.036 328.029 153.445 326.519L147.506 330.03C146.979 331.613 146.599 333.312 146.22 335.011ZM145.137 338.822C144.758 340.521 144.23 342.104 143.851 343.804L149.79 340.294C150.169 338.594 150.579 337.085 151.076 335.312L145.137 338.822ZM155.872 317.273L149.933 320.783C149.435 322.557 149.056 324.256 148.559 326.029L154.498 322.519C154.965 320.556 155.344 318.857 155.872 317.273ZM157.042 313.199C157.54 311.426 158.037 309.652 158.565 308.069L152.626 311.579C152.129 313.353 151.631 315.126 151.104 316.709L157.042 313.199ZM171.786 268.675C171.874 268.411 171.992 268.337 172.08 268.073C172.462 267.207 172.844 266.342 173.226 265.476C173.432 265.138 173.608 264.61 173.814 264.272L167.906 267.973C167.23 269.44 166.554 270.907 166.026 272.491L171.786 268.675ZM169.285 264.394L175.076 260.768C175.282 260.43 175.458 259.902 175.664 259.564C175.958 258.963 176.252 258.361 176.428 257.833C176.634 257.495 176.81 256.967 177.016 256.629L171.107 260.329C170.725 261.195 170.225 262.135 169.843 263L169.755 263.264C169.698 263.718 169.491 264.056 169.285 264.394ZM186.016 238.881C185.574 239.367 185.101 239.663 184.777 240.075L190.715 236.565C191.158 236.079 191.63 235.783 191.955 235.371C192.279 234.959 192.752 234.663 193.076 234.252L187.137 237.762C186.813 238.174 186.458 238.396 186.016 238.881ZM180.619 244.976L186.557 241.466C187.294 240.378 188.061 239.481 188.827 238.583L182.889 242.093C182.122 242.991 181.355 243.888 180.619 244.976ZM176.7 250.563L182.639 247.052C183.375 245.965 184.081 244.687 184.848 243.789L178.909 247.3C178.173 248.387 177.436 249.475 176.7 250.563ZM175.081 253.456C174.581 254.395 174.081 255.335 173.581 256.275C173.375 256.613 173.168 256.95 172.962 257.288L178.753 253.662C179.459 252.385 180.165 251.107 180.871 249.83L175.081 253.456ZM139.977 272.933C134.263 281.94 129.24 293.648 124.634 306.347L159.584 285.087C162.195 277.813 164.985 270.846 167.895 264.638C168.659 262.907 169.571 261.291 170.365 259.75C170.866 258.81 171.248 257.945 171.778 257.195C172.072 256.593 172.278 256.255 172.572 255.653C173.397 254.302 174.103 253.024 174.927 251.673L169.964 254.781L139.977 272.933ZM140.342 267.066L146.281 263.556C147.047 262.658 147.844 261.95 148.641 261.242L142.703 264.752C142.024 265.386 141.227 266.094 140.342 267.066ZM136.272 271.703L142.211 268.193C142.947 267.105 143.714 266.207 144.481 265.309L138.542 268.82C137.806 269.907 137.039 270.805 136.272 271.703ZM132.265 277.553L138.204 274.043C138.94 272.955 139.647 271.678 140.413 270.78L134.475 274.29C133.738 275.378 133.002 276.466 132.265 277.553ZM128.498 284.089L134.436 280.579C135.143 279.301 135.849 278.024 136.555 276.746L130.616 280.256C129.91 281.534 129.204 282.812 128.498 284.089ZM124.969 291.311L130.908 287.8C131.584 286.333 132.29 285.055 132.966 283.588L127.027 287.098C126.233 288.639 125.645 289.843 124.969 291.311ZM121.531 299.102L127.47 295.592C128.146 294.124 128.673 292.541 129.349 291.073L123.411 294.583C122.765 296.241 122.089 297.708 121.531 299.102ZM118.214 307.652L124.153 304.142C124.799 302.485 125.326 300.901 126.002 299.434L120.064 302.944C119.506 304.338 118.86 305.995 118.214 307.652ZM115.164 316.245L121.102 312.735C121.63 311.152 122.276 309.494 122.773 307.721L116.834 311.231C116.337 313.004 115.691 314.662 115.164 316.245ZM112.174 325.217L118.112 321.707C118.61 319.934 119.256 318.277 119.783 316.693L113.844 320.203C113.317 321.787 112.701 323.634 112.174 325.217ZM109.362 334.496L115.301 330.985C115.798 329.212 116.326 327.629 116.823 325.856L110.885 329.366C110.357 330.949 109.86 332.722 109.362 334.496ZM106.669 343.7L112.608 340.19C113.105 338.416 113.603 336.643 114.13 335.06L108.192 338.57C107.664 340.153 107.167 341.927 106.669 343.7ZM104.212 352.756L110.151 349.246C110.648 347.473 111.028 345.773 111.525 344L105.586 347.51C105.119 349.473 104.591 351.057 104.212 352.756ZM101.755 361.812L107.694 358.302C108.073 356.603 108.571 354.829 108.98 353.32L103.041 356.83C102.662 358.529 102.283 360.229 101.755 361.812ZM99.5349 370.72L105.474 367.21C105.853 365.511 106.262 364.002 106.76 362.228L100.821 365.738C100.324 367.512 99.9142 369.021 99.5349 370.72ZM97.3721 379.175L103.311 375.665C103.72 374.155 104.1 372.456 104.509 370.947L98.5703 374.457C98.1608 375.966 97.7816 377.665 97.3721 379.175ZM101.002 384.837C101.47 382.874 101.967 381.1 102.316 379.211L96.3773 382.721C95.8798 384.494 95.5308 386.384 95.0636 388.347L101.002 384.837ZM136.063 369.981C136.297 368.999 136.53 368.018 136.676 367.3C137.668 362.92 138.721 358.92 139.685 355.183C141.672 347.257 143.835 338.802 146.086 330.084L111.135 351.344C108.766 360.137 106.603 368.591 104.734 376.444C103.77 380.18 102.866 384.296 101.725 388.56C101.492 389.542 101.228 390.334 101.112 391.241L136.063 369.981ZM134.738 381.252L140.677 377.741C141.175 375.968 141.642 374.005 142.021 372.306L136.082 375.816C135.585 377.589 135.206 379.288 134.738 381.252ZM132.136 391.025L138.075 387.515C138.572 385.742 139.039 383.779 139.537 382.006L133.598 385.516C133.131 387.479 132.633 389.252 132.136 391.025ZM129.355 400.493L135.294 396.983C135.791 395.21 136.406 393.363 136.904 391.59L130.965 395.1C130.38 397.137 129.882 398.91 129.355 400.493ZM126.247 409.54L132.185 406.03C132.713 404.446 133.359 402.789 133.886 401.206L127.948 404.716C127.42 406.299 126.892 407.883 126.247 409.54ZM123.045 417.183L128.984 413.673C129.69 412.395 130.248 411.002 130.894 409.344L124.955 412.855C124.309 414.512 123.603 415.79 123.045 417.183ZM127.365 416.566L121.426 420.076C120.72 421.354 120.102 422.367 119.365 423.455L125.304 419.945C126.041 418.857 126.659 417.843 127.365 416.566Z" fill="#63035F"/>
<path d="M69.3541 456.235L75.2926 452.725C74.8199 453.021 74.317 453.127 73.8443 453.423L71.2447 455.051C71.5992 454.829 72.0416 454.343 72.3659 453.931L70.1208 455.337C69.5602 455.897 68.9996 456.457 68.4088 456.827C68.7632 456.605 68.9996 456.457 69.3541 456.235Z" fill="#63035F"/>
<path d="M185.981 237.86C184.208 238.97 182.436 240.08 180.633 241L174.813 244.436C173.04 245.546 171.268 246.656 169.465 247.576L185.981 237.86Z" fill="#63035F"/>
<path d="M120.288 425.176C120.791 425.069 121.382 424.699 121.855 424.403L112.134 430.282C108.677 432.238 105.981 431.629 103.846 430.46L75.1583 447.799L68.8651 451.531C70.022 452.268 71.0882 452.436 72.1545 452.603C72.5393 452.571 72.954 452.728 73.3387 452.696C74.1082 452.632 74.8776 452.568 75.6168 452.314C76.2379 452.134 76.7105 451.838 77.1832 451.542L67.3453 457.494C64.3911 459.344 61.1345 459.295 57.6031 456.704C50.6009 451.9 43.0051 437.654 34.8762 414.345C7.6808 336.569 0.96455 247.848 0.112722 186.988C-0.84078 122.223 4.39723 67.7811 10.4404 33.0908L64.9496 0C64.9799 0.189894 64.8919 0.453823 64.8919 0.453823C64.5429 2.34297 64.2818 3.96819 63.963 6.04724C63.9053 6.50102 63.8174 6.76491 63.7597 7.2187C63.4409 9.29774 63.1221 11.3768 62.8033 13.4558C62.7456 13.9096 62.6879 14.3634 62.6301 14.8172C62.3416 17.0862 62.0228 19.1652 61.6463 21.698C61.3578 23.967 61.0995 26.4258 60.723 28.9586C60.6653 29.4124 60.6075 29.8662 60.58 30.5099C60.3217 32.9687 60.0634 35.4275 59.6869 37.9604C59.6292 38.4142 59.5715 38.868 59.5138 39.3217C59.2252 41.5907 58.9669 44.0495 58.8267 46.4343C58.769 46.8881 58.681 47.152 58.7415 47.5318C58.5134 50.1806 58.2853 52.8293 57.9391 55.552C57.9116 56.1957 57.8539 56.6494 57.8264 57.2931C57.6285 60.1317 57.4004 62.7805 57.1146 65.883C57.1448 66.0729 57.0569 66.3368 57.0871 66.5267C56.859 69.1754 56.6612 72.014 56.4633 74.8526C56.4358 75.4963 56.3781 75.9501 56.3506 76.5938C56.1528 79.4324 55.9851 82.4609 55.8175 85.4894C55.79 86.1331 55.7625 86.7768 55.7048 87.2306C55.5372 90.2591 55.4574 93.0237 55.2898 96.0522C55.32 96.2421 55.2623 96.6959 55.2926 96.8858C55.1552 100.104 55.0177 103.323 54.9985 106.467C54.971 107.111 54.9738 107.944 54.9463 108.588C54.8089 111.806 54.8198 115.141 54.6824 118.359C54.6247 118.813 54.6851 119.193 54.6577 119.836C54.6384 122.981 54.589 125.935 54.5698 129.08C54.5423 129.723 54.5148 130.367 54.5753 130.747C54.5862 134.081 54.4791 137.489 54.5203 141.014C54.4928 141.657 54.4955 142.491 54.4982 143.324C54.5395 146.849 54.5807 150.373 54.6522 154.087C55.4738 214.758 62.2203 303.668 89.4156 381.444C90.5808 384.682 91.6856 387.54 92.6722 390.472C93.0899 391.464 93.5076 392.455 93.8072 393.52C94.2551 394.702 94.703 395.883 95.1207 396.874C95.5384 397.865 95.9562 398.857 96.3437 399.658C96.5525 400.154 96.7614 400.65 96.94 400.955C97.2973 401.567 97.5666 402.442 97.9238 403.054C102.038 411.754 105.907 418.102 109.708 421.569C110.005 421.801 110.332 422.222 110.628 422.454C111.074 422.802 111.519 423.149 111.964 423.497C113.596 424.772 115.226 425.213 116.825 425.465C117.21 425.432 117.477 425.474 117.861 425.442C118.661 425.568 119.549 425.43 120.288 425.176ZM100.622 413.476L94.6838 416.986C95.7555 418.821 96.7971 420.466 97.9568 422.036L103.896 418.526C102.736 416.955 101.694 415.311 100.622 413.476ZM97.1076 406.906C96.7503 406.295 96.3629 405.493 96.0935 404.618C95.6758 403.627 95.14 402.709 94.7223 401.718L88.8138 405.418C88.844 405.608 88.9924 405.724 89.0226 405.913C89.8278 407.706 90.633 409.499 91.5564 411.218C91.7652 411.714 91.9741 412.209 92.1527 412.515L98.0612 408.815C97.8221 408.129 97.4649 407.518 97.1076 406.906ZM9.87958 159.363C9.84384 166.485 9.83836 173.797 9.98125 181.225C10.2066 195.702 10.704 211.888 11.7675 229.18L46.7182 207.92C45.6547 190.627 45.0392 174.516 44.932 159.965C44.7891 152.537 44.7946 145.225 44.8303 138.102L9.87958 159.363ZM44.9348 133.86C45.2069 108.631 46.3446 85.5745 48.1117 64.8384L13.161 86.0989C11.3939 106.835 10.2562 129.892 9.98406 155.121L44.9348 133.86ZM12.0176 233.2C13.6664 257.435 16.2688 283.579 20.6493 310.28L55.6 289.02C51.3377 262.245 48.5869 235.985 46.9683 211.94L12.0176 233.2ZM21.405 315.028C25.9339 341.845 31.9742 369.177 40.3203 395.483L75.271 374.222C66.925 347.916 60.8846 320.584 56.3557 293.767L21.405 315.028ZM80.0638 382.288L86.0025 378.778C84.8373 375.54 83.76 372.038 82.713 368.726L76.7743 372.237C77.8213 375.549 78.8986 379.05 80.0638 382.288ZM82.7239 390.02C83.8891 393.258 85.0241 396.306 86.247 399.09L91.4767 396.024L92.1858 395.58C92.0071 395.274 91.9467 394.894 91.7983 394.778C90.754 392.3 89.7976 389.558 88.6928 386.699L82.7239 390.02ZM71.5639 354.199C72.4927 357.585 73.4216 360.971 74.4988 364.473L80.4376 360.963C79.3905 357.651 78.4617 354.265 77.5026 350.689L71.5639 354.199ZM72.7648 332.356L66.8261 335.866C67.6368 339.326 68.4475 342.786 69.3764 346.172L75.3151 342.662C74.3862 339.276 73.5755 335.816 72.7648 332.356ZM68.6783 314.033L62.7396 317.543C63.4321 321.077 64.2126 324.347 64.9052 327.881L70.8439 324.371C70.1816 321.027 69.3708 317.567 68.6783 314.033ZM65.125 295.793L59.1863 299.303C59.7304 302.722 60.423 306.256 61.0853 309.6L67.024 306.089C66.4799 302.671 65.7873 299.137 65.125 295.793ZM62.223 277.564L56.2843 281.074C56.8284 284.492 57.3726 287.91 57.9167 291.328L63.8554 287.818C63.3113 284.4 62.7672 280.982 62.223 277.564ZM59.7361 259.492L53.7973 263.002C54.1931 266.304 54.7372 269.722 55.1329 273.024L61.0716 269.514C60.5577 266.286 60.1318 262.794 59.7361 259.492ZM57.576 241.841L51.6373 245.351C52.0331 248.654 52.3106 252.03 52.7063 255.332L58.645 251.822C58.3675 248.446 57.9718 245.143 57.576 241.841ZM55.9794 224.465L50.0407 227.975C50.288 231.161 50.6535 234.273 50.931 237.65L56.8698 234.139C56.5043 231.027 56.2569 227.841 55.9794 224.465ZM54.6218 207.774L48.6831 211.284C48.9002 214.28 49.1476 217.466 49.3949 220.653L55.3336 217.143C55.0863 213.956 54.8691 210.96 54.6218 207.774ZM53.7397 191.62L47.801 195.13C48.0181 198.127 48.117 201.197 48.3341 204.193L54.2729 200.683C54.0558 197.687 53.8386 194.69 53.7397 191.62ZM53.0967 176.152L47.158 179.662C47.2267 182.543 47.4135 185.349 47.4822 188.23L53.421 184.72C53.2341 181.913 53.1654 179.033 53.0967 176.152ZM52.7229 161.56L46.7842 165.07C46.8227 167.76 46.8612 170.451 47.0481 173.258L52.9868 169.747C52.7999 166.941 52.7614 164.25 52.7229 161.56ZM52.4921 145.416L46.5534 148.926C46.5644 152.26 46.5754 155.595 46.7046 158.855L52.6433 155.345C52.5141 152.085 52.5031 148.75 52.4921 145.416ZM52.5828 128.027L46.6441 131.537C46.6249 134.681 46.6359 138.016 46.6166 141.16L52.5553 137.65C52.4564 134.58 52.4757 131.435 52.5828 128.027ZM52.9126 111.323L46.9739 114.833C46.9547 117.978 46.787 121.006 46.7678 124.151L52.7065 120.641C52.7258 117.496 52.7752 114.542 52.9126 111.323ZM53.4815 95.3052L47.5428 98.8153C47.3752 101.844 47.3257 104.798 47.158 107.827L53.0968 104.317C53.2342 101.098 53.2837 98.1438 53.4815 95.3052ZM54.2593 79.7828L48.3206 83.293C48.1227 86.1316 47.9248 88.9702 47.8753 91.9247L53.8141 88.4146C54.0119 85.576 54.0614 82.6215 54.2593 79.7828ZM55.3063 65.136L49.3676 68.6461C49.1395 71.2948 48.9416 74.1334 48.7135 76.7822L54.6523 73.272C54.8804 70.6233 55.0782 67.7847 55.3063 65.136ZM56.4743 51.2486L50.5356 54.7588C50.2773 57.2176 50.0492 59.8663 49.8211 62.515L55.7598 59.0049C55.9879 56.3562 56.216 53.7075 56.4743 51.2486ZM57.8813 38.0469L51.9426 41.5571C51.6843 44.0159 51.3957 46.2848 51.1676 48.9335L57.1064 45.4234C57.3647 42.9646 57.623 40.5058 57.8813 38.0469ZM59.3214 25.8687L53.3827 29.3788C53.0942 31.6477 52.8056 33.9166 52.517 36.1856L58.4558 32.6755C58.7443 30.4065 59.0329 28.1376 59.3214 25.8687ZM60.8824 14.45L54.9436 17.9601C54.6249 20.0391 54.3061 22.1182 53.9873 24.1972L59.926 20.6871C60.2448 18.6081 60.5636 16.529 60.8824 14.45ZM56.5678 7.75479C56.2188 9.64394 55.988 11.4591 55.6692 13.5381L61.6079 10.028C61.9267 7.94893 62.1575 6.1338 62.5065 4.24465L56.5678 7.75479ZM19.9325 29.8613C17.4344 44.3728 15.2139 62.2604 13.3864 82.6166L48.3371 61.3561C50.1646 40.9999 52.3852 23.1123 54.8832 8.60086L19.9325 29.8613ZM11.3225 40.2648L17.2613 36.7547C17.58 34.6757 17.8109 32.8605 18.1599 30.9713L12.2212 34.4815C11.8722 36.3706 11.5534 38.4497 11.3225 40.2648ZM9.70116 51.3037L15.6399 47.7936C15.9587 45.7145 16.2472 43.4456 16.5962 41.5565L10.6575 45.0666C10.3085 46.9557 9.98971 49.0348 9.70116 51.3037ZM8.20062 63.1022L14.1393 59.5921C14.4279 57.3232 14.7164 55.0542 15.005 52.7853L9.06629 56.2954C8.77773 58.5644 8.48917 60.8333 8.20062 63.1022ZM6.85129 75.8502L12.79 72.34C13.0483 69.8812 13.3067 67.4224 13.565 64.9635L7.62628 68.4736C7.24978 71.0065 7.10962 73.3913 6.85129 75.8502ZM5.50468 89.4317L11.4434 85.9215C11.6715 83.2728 11.8996 80.6241 12.1579 78.1653L6.2192 81.6754C5.96088 84.1342 5.73278 86.783 5.50468 89.4317ZM4.42741 103.889L10.3661 100.379C10.564 97.5399 10.7921 94.8912 11.0202 92.2425L5.08148 95.7526C4.82315 98.2114 4.62528 101.05 4.42741 103.889ZM3.55898 118.841L9.4977 115.331C9.69557 112.493 9.745 109.538 9.94286 106.699L4.00415 110.21C3.80628 113.048 3.63868 116.077 3.55898 118.841ZM2.8417 134.743L8.78041 131.233C8.94806 128.205 8.99748 125.25 9.16512 122.222L3.22641 125.732C3.05877 128.76 2.89117 131.789 2.8417 134.743ZM2.33324 151.141L8.27196 147.631C8.2912 144.487 8.42859 141.268 8.47806 138.314L2.53935 141.824C2.52011 144.968 2.50088 148.113 2.33324 151.141ZM2.21228 168.341L8.151 164.83C8.14001 161.496 8.15926 158.352 8.1785 155.207L2.23979 158.717C2.22055 161.862 2.20129 165.006 2.21228 168.341ZM2.30022 186.035L8.23894 182.525C8.22795 179.191 8.21693 175.857 8.08778 172.596L2.14906 176.107C2.24799 179.177 2.259 182.511 2.30022 186.035C2.26999 185.846 2.26999 185.846 2.30022 186.035ZM2.61349 200.248L8.5522 196.738C8.51373 194.047 8.44502 191.167 8.28838 188.55L2.34967 192.06C2.50631 194.677 2.54479 197.368 2.61349 200.248ZM3.19604 215.336L9.13476 211.826C9.06606 208.946 8.87918 206.139 8.81048 203.259L2.87176 206.769C2.91023 209.459 2.97894 212.34 3.19604 215.336ZM3.89958 231.184L9.8383 227.674C9.6212 224.677 9.52221 221.607 9.30512 218.611L3.3664 222.121C3.5835 225.117 3.80065 228.114 3.89958 231.184ZM5.07846 247.569L11.0172 244.059C10.7698 240.873 10.5226 237.687 10.3055 234.69L4.36675 238.2C4.61408 241.387 4.86136 244.573 5.07846 247.569ZM6.64491 264.756L12.5836 261.246C12.3061 257.87 11.9406 254.757 11.6933 251.571L5.75453 255.081C6.00186 258.268 6.24918 261.454 6.64491 264.756ZM8.5081 282.175L14.4468 278.664C14.0511 275.362 13.6553 272.06 13.3778 268.684L7.43905 272.194C7.71661 275.57 8.11238 278.872 8.5081 282.175ZM10.7286 300.205L16.6673 296.694C16.1232 293.276 15.7274 289.974 15.3317 286.672L9.393 290.182C9.9069 293.41 10.3026 296.713 10.7286 300.205ZM13.4821 318.319L19.4208 314.808C18.8767 311.39 18.3326 307.972 17.7885 304.554L11.8497 308.064C12.3939 311.482 12.938 314.9 13.4821 318.319ZM16.7689 336.516L22.7076 333.006C22.0453 329.662 21.3528 326.128 20.8087 322.71L14.87 326.22C15.5323 329.564 16.1066 333.172 16.7689 336.516ZM20.619 354.988L26.5577 351.477C25.747 348.017 25.0545 344.483 24.3922 341.139L18.4535 344.65C19.1158 347.994 19.8083 351.528 20.619 354.988ZM25.0599 373.089L30.9986 369.579C30.0698 366.193 29.2591 362.733 28.4484 359.273L22.5097 362.783C23.3204 366.243 24.1311 369.703 25.0599 373.089ZM30.0341 391.274L35.9728 387.764C34.9257 384.452 33.9969 381.066 33.0378 377.49L27.0991 381C28.0582 384.576 28.987 387.962 30.0341 391.274ZM35.7473 409.205L41.6861 405.695C40.5208 402.457 39.4436 398.955 38.3966 395.643L32.4579 399.153C33.5049 402.465 34.5821 405.967 35.7473 409.205ZM38.4076 416.936C39.5728 420.174 40.7077 423.222 41.9306 426.006L47.8693 422.496C46.7646 419.638 45.6296 416.59 44.3463 413.426L38.4076 416.936ZM53.7448 435.732C52.6126 433.517 51.4804 431.303 50.4059 428.634L44.4671 432.145C45.6598 434.739 46.6739 437.027 47.8061 439.242L53.7448 435.732ZM59.4307 445.327C58.4194 443.872 57.2597 442.301 56.1577 440.277L50.219 443.787C51.2907 445.621 52.3323 447.266 53.492 448.837L59.4307 445.327ZM59.1366 454.908L65.0753 451.398C64.0366 450.587 62.9675 449.586 62.0167 448.511L56.078 452.021C57.059 453.286 58.0978 454.097 59.1366 454.908ZM70.0907 455.149L66.5456 457.368C67.1667 457.188 67.7878 457.008 68.4089 456.828C68.6452 456.68 69.0299 456.648 69.2662 456.5L75.2049 452.99C74.7323 453.286 74.2294 453.392 73.7567 453.688C73.372 453.72 72.8993 454.016 72.5146 454.048L72.3963 454.122L70.0907 455.149ZM67.3892 452.873L61.4505 456.383C62.4289 456.814 63.4072 457.246 64.4433 457.223L70.382 453.713C69.3459 453.736 68.3676 453.304 67.3892 452.873ZM102.541 429.607C101.947 429.143 101.502 428.796 101.057 428.448C100.76 428.216 100.433 427.795 100.136 427.563C97.998 425.561 95.8572 422.725 93.7137 419.055C92.9992 417.832 92.3149 416.799 91.5701 415.386C91.004 414.279 90.2895 413.055 89.7234 411.948C89.1875 411.031 88.7396 409.85 88.1734 408.742C85.4006 402.752 82.5645 395.549 79.5471 387.206C78.5605 384.274 77.5739 381.342 76.5874 378.409L41.6366 399.67C42.6232 402.602 43.6098 405.534 44.5963 408.467C52.6951 431.586 60.2909 445.832 67.3233 450.826L67.4717 450.941L76.2465 445.655L86.0848 439.703L102.541 429.607ZM103.483 428.181L109.422 424.671C109.125 424.439 108.977 424.324 108.798 424.018C108.501 423.786 108.174 423.364 107.878 423.133C107.402 422.595 106.957 422.247 106.451 421.52L100.513 425.03C100.988 425.568 101.463 426.105 101.939 426.643C102.236 426.875 102.563 427.296 102.859 427.528C103.008 427.644 103.305 427.876 103.483 428.181ZM108.79 430.497L114.729 426.986C113.811 426.935 112.832 426.503 111.736 426.146L105.797 429.656C106.894 430.013 107.872 430.445 108.79 430.497ZM119.609 425.809C119.137 426.105 118.634 426.212 118.161 426.508C117.776 426.54 117.304 426.836 116.919 426.868L111.129 430.494C111.75 430.314 112.371 430.134 113.11 429.879C113.346 429.731 113.583 429.583 113.849 429.625L119.609 425.809Z" fill="#63035F"/>
</g>
</svg>
