<svg width="934" height="1325" viewBox="0 0 934 1325" fill="none" xmlns="http://www.w3.org/2000/svg">
<g opacity="0.4">
<path d="M815.537 1008.6C818.836 1021.24 822.362 1033.78 825.662 1046.41C827.192 1052.11 828.722 1057.81 830.369 1063.79C830.84 1065.6 831.312 1067.4 831.899 1069.49C832.958 1073.39 834.017 1077.28 835.076 1081.18C835.664 1083.27 836.141 1085.74 836.729 1087.83C837.672 1091.44 838.498 1094.76 839.441 1098.37C840.145 1100.75 840.622 1103.22 841.326 1105.59C842.153 1108.92 842.979 1112.24 843.922 1115.85C844.626 1118.23 845.103 1120.7 845.807 1123.07C846.634 1126.39 847.46 1129.72 848.287 1133.04C848.99 1135.42 849.468 1137.89 850.172 1140.26C850.998 1143.59 851.825 1146.91 852.651 1150.24C853.355 1152.61 853.833 1155.08 854.537 1157.46C855.479 1161.07 856.306 1164.39 857.022 1168.1C857.61 1170.19 858.087 1172.66 858.675 1174.75C859.734 1178.64 860.45 1182.35 861.509 1186.24C861.981 1188.04 862.568 1190.13 862.813 1192.03C864.111 1197.16 865.182 1202.39 866.48 1207.52C866.713 1208.09 866.603 1208.47 866.835 1209.04C868.139 1214.83 869.443 1220.63 870.631 1226.14C871.102 1227.94 871.347 1229.84 871.818 1231.65C872.651 1235.64 873.484 1239.63 874.543 1243.52C874.904 1245.71 875.492 1247.8 875.969 1250.26C876.685 1253.97 877.512 1257.29 878.228 1261C878.706 1263.47 879.41 1265.84 879.771 1268.03C880.597 1271.35 881.197 1274.77 881.797 1278.19C882.275 1280.66 882.753 1283.13 883.456 1285.51C884.056 1288.93 884.883 1292.25 885.483 1295.67C885.961 1298.14 886.438 1300.61 886.915 1303.08C887.516 1306.5 888.342 1309.83 888.942 1313.25C889.42 1315.71 889.897 1318.18 890.258 1320.37C890.859 1323.79 891.575 1327.49 892.401 1330.82C892.762 1333 893.24 1335.47 893.828 1337.56C894.544 1341.27 895.377 1345.26 896.093 1348.96C896.454 1351.15 896.925 1352.95 897.287 1355.14C898.242 1360.08 899.197 1365.02 900.152 1369.96C900.274 1370.91 900.507 1371.48 900.629 1372.43C901.707 1378.32 902.785 1384.21 903.862 1390.09C904.334 1391.9 904.462 1393.51 904.707 1395.41C905.54 1399.4 906.146 1403.49 906.869 1407.86C907.23 1410.04 907.707 1412.51 908.069 1414.7C908.785 1418.4 909.385 1421.82 909.875 1425.62C910.352 1428.09 910.83 1430.56 911.191 1432.75C911.791 1436.17 912.508 1439.87 913.108 1443.29C913.585 1445.76 914.063 1448.23 914.314 1450.8C914.914 1454.22 915.514 1457.63 916.114 1461.05C916.592 1463.52 916.843 1466.09 917.32 1468.56C917.92 1471.98 918.52 1475.4 919.01 1479.2C919.488 1481.67 919.739 1484.23 920.216 1486.7C920.817 1490.12 921.306 1493.92 921.906 1497.34C922.384 1499.81 922.635 1502.38 922.997 1504.56C923.486 1508.36 924.319 1512.35 924.809 1516.15C925.17 1518.34 925.532 1520.52 925.893 1522.71C926.622 1527.74 927.46 1532.39 928.189 1537.43C928.428 1538.66 928.55 1539.61 928.789 1540.85C929.64 1546.83 930.608 1553.1 931.459 1559.09C931.704 1560.99 931.833 1562.6 932.304 1564.41C932.794 1568.21 933.284 1572.01 934 1575.71L829.28 1618C802.777 1432.19 768.358 1262.72 721.278 1088.22C717.979 1075.59 714.453 1063.05 711.153 1050.42C679.132 931.012 645.936 807.428 590.049 675.677C546.245 572.233 482.61 474.776 427.963 427.286C420.632 421.017 413.993 415.794 407.475 411.52C408.362 409.145 409.476 406.675 410.479 404.585L417.497 401.639C416.01 400.594 414.413 399.929 413.042 399.169C413.489 398.314 413.935 397.459 414.382 396.604C419.748 399.358 425.348 402.683 431.296 406.861L498.429 379.683C477.837 364.962 460.514 359.549 445.866 360.692L439.074 363.542C439.637 362.972 440.543 362.592 441.105 362.022L443.369 361.072C442.917 361.262 442.574 361.072 442.121 361.262C442.574 361.072 443.137 360.502 443.59 360.312C444.269 360.027 445.064 360.027 445.743 359.742L457.179 355.275C455.478 355.655 453.434 355.846 451.85 356.511L447.322 358.411C448.001 358.126 448.68 357.841 449.243 357.271C449.922 356.986 450.601 356.701 451.281 356.416C471.772 348.148 498.31 354.699 533.252 385.093C587.899 432.583 651.534 530.04 695.338 633.484C750.545 765.52 783.516 889.2 815.537 1008.6ZM799.096 963.769L787.661 968.235C789.069 972.985 790.134 977.545 791.542 982.294L802.977 977.828C801.796 972.983 800.388 968.234 799.096 963.769ZM878.49 1362.36C872.16 1329.3 865.376 1296.43 858.367 1263.66L791.233 1290.84C798.243 1323.61 805.026 1356.48 811.357 1389.54L878.49 1362.36ZM812.318 1395.14C818.649 1428.2 824.643 1461.73 830.301 1495.74L897.434 1468.56C891.776 1434.55 885.898 1401.31 879.452 1367.96L812.318 1395.14ZM857.179 1258.15C849.943 1225.47 842.48 1192.89 834.675 1160.12L767.542 1187.3C775.573 1219.98 783.036 1252.56 790.045 1285.33L857.179 1258.15ZM833.261 1154.71C825.229 1122.03 816.971 1089.45 808.028 1056.48L740.895 1083.66C749.722 1116.34 758.096 1149.21 766.128 1181.88L833.261 1154.71ZM806.381 1050.5C803.321 1039.1 800.144 1027.42 797.083 1016.02C790.374 991.129 783.665 966.241 776.723 940.783L709.59 967.961C716.415 993.134 723.24 1018.31 729.95 1043.2C733.127 1054.88 736.187 1066.28 739.248 1077.68L806.381 1050.5ZM572.687 592.843L639.82 565.665C619 526.339 595.817 489.674 572.801 458.614L505.667 485.792C528.684 516.853 551.75 553.233 572.687 592.843ZM530.031 527.302L518.595 531.768C521.478 536.233 524.36 540.697 527.359 545.447L538.795 540.98C535.796 536.231 532.914 531.766 530.031 527.302ZM514.474 504.125L503.039 508.592C506.031 512.676 508.914 517.14 511.796 521.605L523.232 517.138C520.349 512.674 517.467 508.21 514.474 504.125ZM507.565 494.342C504.573 490.257 501.58 486.173 498.704 482.374L487.268 486.84C490.144 490.639 493.137 494.724 496.129 498.808L507.565 494.342ZM491.917 473.54C489.04 469.74 485.938 466.036 482.951 462.617L471.516 467.083C474.502 470.503 477.378 474.302 480.481 478.006L491.917 473.54ZM542.365 570.523L553.801 566.057C551.029 561.213 548.256 556.368 545.258 551.619L533.822 556.085C536.594 560.93 539.593 565.679 542.365 570.523ZM576.157 599.397C587.957 621.814 598.741 644.992 608.846 668.454C616.282 686.028 623.26 703.126 629.784 720.414L696.918 693.236C690.167 676.042 683.299 658.564 675.979 641.276C666.101 617.719 655.09 594.636 643.291 572.219L576.157 599.397ZM632.459 726.968C647.485 766.389 660.798 804.861 672.857 842.857L739.99 815.679C727.931 777.682 714.502 738.926 699.592 699.79L632.459 726.968ZM674.852 849.697C686.91 887.693 697.598 924.93 707.717 962.072L774.85 934.894C764.505 897.847 753.817 860.61 741.985 822.518L674.852 849.697ZM792.271 938.596L780.835 943.062C782.243 947.812 783.308 952.372 784.716 957.121L796.152 952.655C794.86 948.19 793.679 943.346 792.271 938.596ZM785.446 913.423L774.01 917.89C775.418 922.639 776.599 927.484 777.891 931.948L789.327 927.482C788.035 923.017 786.627 918.268 785.446 913.423ZM778.051 888.155L766.616 892.622C768.023 897.371 769.431 902.121 770.613 906.965L782.049 902.499C780.867 897.654 779.459 892.905 778.051 888.155ZM770.883 862.792L759.448 867.259C760.855 872.009 762.263 876.758 763.671 881.508L775.107 877.041C773.473 872.387 772.291 867.542 770.883 862.792ZM763.03 837.05L751.594 841.516C753.002 846.266 754.526 851.3 755.934 856.05L767.37 851.583C765.962 846.834 764.554 842.084 763.03 837.05ZM754.95 811.402L743.514 815.868C745.039 820.903 746.673 825.558 748.081 830.307L759.516 825.841C758.109 821.091 756.701 816.342 754.95 811.402ZM746.754 785.469L735.318 789.936C737.069 794.875 738.477 799.625 740.001 804.66L751.437 800.193C749.912 795.159 748.162 790.219 746.754 785.469ZM737.872 759.157L726.437 763.623C728.187 768.563 729.938 773.502 731.462 778.537L742.898 774.07C741.147 769.131 739.623 764.096 737.872 759.157ZM728.765 732.939L717.329 737.406C719.08 742.345 720.83 747.285 722.581 752.224L734.016 747.758C732.266 742.818 730.515 737.879 728.765 732.939ZM718.972 706.342L707.536 710.808C709.286 715.748 711.38 720.877 713.13 725.817L724.566 721.351C722.589 716.506 720.722 711.281 718.972 706.342ZM708.609 679.65L697.174 684.116C699.267 689.246 701.017 694.185 703.111 699.314L714.546 694.848C712.453 689.719 710.586 684.494 708.609 679.65ZM697.788 652.482L686.352 656.949C688.446 662.078 690.539 667.208 692.516 672.052L703.951 667.586C701.975 662.741 699.881 657.612 697.788 652.482ZM686.055 625.03L674.62 629.497C676.015 632.916 677.753 636.526 679.149 639.946C679.846 641.655 680.544 643.365 681.358 645.36L692.794 640.894C692.096 639.184 691.398 637.474 690.584 635.479C689.189 632.06 687.677 628.355 686.055 625.03ZM673.294 597.008L661.859 601.475C664.294 606.794 666.957 612.019 669.05 617.148L680.486 612.682C678.05 607.362 675.73 602.328 673.294 597.008ZM659.744 569.652L648.308 574.118C650.971 579.342 653.517 584.282 656.179 589.506L667.615 585.04C664.952 579.815 662.29 574.591 659.744 569.652ZM645.404 542.96L633.969 547.426C636.741 552.271 639.287 557.21 642.176 562.339L653.612 557.873C650.723 552.744 648.177 547.804 645.404 542.96ZM630.392 517.218L618.956 521.685C621.729 526.529 624.727 531.278 627.5 536.123L638.936 531.656C636.163 526.812 633.391 521.967 630.392 517.218ZM615.165 492.901L603.73 497.368C606.612 501.832 609.495 506.297 612.494 511.046L623.929 506.58C620.931 501.83 618.048 497.366 615.165 492.901ZM599.609 469.725L588.173 474.191C591.166 478.275 594.048 482.74 596.931 487.204L608.366 482.738C605.484 478.273 602.601 473.809 599.609 469.725ZM583.954 448.258L572.518 452.724C575.395 456.524 578.387 460.608 581.38 464.693L592.816 460.226C589.823 456.142 586.831 452.057 583.954 448.258ZM568.202 428.501L556.766 432.967C559.753 436.387 562.629 440.186 565.732 443.891L577.167 439.424C574.291 435.625 571.188 431.92 568.202 428.501ZM552.695 410.644L541.259 415.11C544.129 418.245 547.116 421.664 549.986 424.799L561.421 420.332C558.551 417.198 555.565 413.778 552.695 410.644ZM537.322 395.067L525.887 399.533C528.867 402.288 531.621 405.137 534.375 407.987L545.81 403.52C543.056 400.671 540.303 397.821 537.322 395.067ZM522.311 381.675L510.876 386.141C512.938 387.946 514.884 389.465 517.062 391.555C517.864 392.22 518.439 392.98 519.125 393.36L530.56 388.893C529.759 388.228 529.183 387.468 528.498 387.089C526.436 385.284 524.374 383.479 522.311 381.675ZM508.01 371.322L496.575 375.789C499.09 377.403 501.721 379.303 504.469 381.487L515.904 377.021C513.383 374.741 510.868 373.127 508.01 371.322ZM455.289 359.74L466.724 355.274C464.791 355.084 462.747 355.274 460.93 355.37L449.494 359.836C451.538 359.646 453.471 359.835 455.289 359.74ZM466.327 361.449L477.763 356.982C475.713 356.507 473.663 356.033 471.387 355.653L459.951 360.12C462.001 360.594 464.277 360.974 466.327 361.449ZM478.07 365.532L489.506 361.065C487.223 360.021 485.057 359.261 482.665 358.596L471.229 363.063C473.621 363.727 475.788 364.487 478.07 365.532ZM502.295 367.713C499.78 366.099 497.381 364.769 495.099 363.724L483.663 368.191C486.062 369.52 488.46 370.85 490.859 372.18L502.295 367.713ZM434.166 409.996C438.284 412.94 442.409 416.549 446.76 420.064C464.402 435.355 483.232 456.157 501.757 480.758L568.89 453.58C550.139 429.074 531.652 408.462 513.893 392.885C509.652 388.991 505.418 385.762 501.299 382.818L434.166 409.996ZM430.654 411.136C428.022 409.237 425.391 407.337 422.76 405.438L411.324 409.904C413.839 411.519 416.47 413.418 419.218 415.603L430.654 411.136ZM434.107 428.045L445.542 423.579C444.741 422.914 444.165 422.154 443.48 421.774C441.418 419.969 439.356 418.165 437.293 416.36L425.858 420.827C427.92 422.631 429.866 424.151 432.044 426.241C432.73 426.62 433.531 427.285 434.107 428.045ZM449.24 442.387L460.676 437.921C457.922 435.071 454.826 432.032 452.188 429.467L440.752 433.934C443.506 436.783 446.486 439.538 449.24 442.387ZM464.851 459.199L476.287 454.733C473.301 451.314 470.431 448.179 467.56 445.045L456.125 449.511C458.995 452.645 461.981 456.065 464.851 459.199ZM556.815 596.835L568.251 592.369C565.705 587.429 562.816 582.3 560.044 577.455L548.608 581.922C551.38 586.766 554.269 591.896 556.815 596.835ZM570.818 624.002L582.254 619.535C579.591 614.311 577.046 609.372 574.383 604.147L562.948 608.614C565.72 613.458 568.156 618.777 570.818 624.002ZM583.916 651.549L595.351 647.082C592.915 641.763 590.479 636.443 588.16 631.409L576.724 635.875C579.16 641.195 581.596 646.514 583.916 651.549ZM596.224 679.761L607.659 675.294C606.962 673.584 606.264 671.875 605.45 669.88C604.054 666.46 602.316 662.851 600.921 659.431L589.485 663.897C590.881 667.317 592.619 670.927 594.014 674.346C594.712 676.056 595.526 678.051 596.224 679.761ZM607.271 706.833L618.707 702.366C616.614 697.237 614.521 692.107 612.544 687.263L601.108 691.729C603.311 696.479 605.404 701.608 607.271 706.833ZM617.976 733.715L629.412 729.249C627.435 724.404 625.568 719.18 623.475 714.05L612.039 718.517C614.133 723.646 615.883 728.586 617.976 733.715ZM627.769 760.313L639.205 755.846C637.455 750.907 635.588 745.682 633.611 740.838L622.175 745.304C624.152 750.148 626.019 755.373 627.769 760.313ZM637.22 786.72L648.656 782.254C646.905 777.314 645.155 772.374 643.404 767.435L631.968 771.901C633.719 776.841 635.469 781.78 637.22 786.72ZM646.328 812.938L657.763 808.471C656.013 803.531 654.489 798.497 652.738 793.557L641.303 798.024C642.827 803.058 644.577 807.998 646.328 812.938ZM654.867 839.06L666.302 834.594C664.778 829.559 663.144 824.905 661.62 819.87L650.184 824.336C651.708 829.371 653.342 834.026 654.867 839.06ZM663.063 864.993L674.498 860.526C673.09 855.777 671.566 850.742 669.932 846.088L658.496 850.554C660.131 855.209 661.538 859.958 663.063 864.993ZM670.8 890.451L682.235 885.984C680.828 881.235 679.42 876.485 677.896 871.45L666.46 875.917C667.984 880.951 669.392 885.701 670.8 890.451ZM678.31 916.003L689.746 911.537C688.338 906.787 686.93 902.038 685.522 897.288L674.087 901.754C675.495 906.504 676.903 911.254 678.31 916.003ZM685.705 941.271L697.141 936.805C695.733 932.055 694.325 927.305 693.143 922.461L681.708 926.927C683.005 932.057 684.413 936.806 685.705 941.271ZM692.646 966.729L704.082 962.263C702.674 957.513 701.493 952.668 700.201 948.204L688.766 952.67C690.057 957.135 691.465 961.884 692.646 966.729ZM699.698 991.807L711.134 987.34C709.726 982.591 708.661 978.031 707.253 973.282L695.817 977.748C697.109 982.213 698.29 987.057 699.698 991.807ZM706.407 1016.69L717.843 1012.23C716.435 1007.48 715.37 1002.92 713.962 998.169L702.526 1002.64C703.934 1007.39 704.999 1011.95 706.407 1016.69ZM713.116 1041.58L724.552 1037.12C723.26 1032.65 722.079 1027.81 720.671 1023.06L709.235 1027.52C710.643 1032.27 711.708 1036.83 713.116 1041.58ZM719.709 1066.19L731.145 1061.72C729.737 1056.97 728.672 1052.41 727.264 1047.66L715.828 1052.13C717.236 1056.88 718.417 1061.72 719.709 1066.19ZM726.186 1090.5L737.621 1086.04C737.383 1084.8 736.917 1083.66 736.679 1082.43C735.852 1079.1 734.799 1075.87 733.973 1072.55L722.537 1077.01C723.364 1080.34 724.416 1083.57 725.243 1086.89C725.598 1088.41 725.947 1089.27 726.186 1090.5ZM732.191 1113.02L743.626 1108.55C742.451 1104.37 741.502 1100.1 740.327 1095.92L728.891 1100.38C730.067 1104.56 731.016 1108.84 732.191 1113.02ZM738.08 1135.24L749.515 1130.78C748.34 1126.6 747.391 1122.32 746.216 1118.14L734.78 1122.61C735.955 1126.79 736.904 1131.07 738.08 1135.24ZM743.626 1157.28L755.061 1152.82C753.886 1148.64 752.937 1144.36 751.762 1140.18L740.326 1144.65C741.618 1149.11 742.45 1153.1 743.626 1157.28ZM749.288 1179.61L760.724 1175.14C759.775 1170.87 758.6 1166.69 757.767 1162.7L746.331 1167.16C747.164 1171.15 748.113 1175.43 749.288 1179.61ZM754.608 1201.74L766.044 1197.27C765.095 1193 763.919 1188.82 763.087 1184.83L751.651 1189.3C752.6 1193.57 753.659 1197.46 754.608 1201.74ZM759.928 1223.87L771.363 1219.41C770.414 1215.13 769.355 1211.24 768.407 1206.96L756.971 1211.43C757.92 1215.7 758.752 1219.69 759.928 1223.87ZM765.021 1246.1L776.457 1241.63C775.508 1237.36 774.675 1233.37 773.5 1229.19L762.064 1233.66C763.24 1237.84 764.072 1241.83 765.021 1246.1ZM770.114 1268.33L781.55 1263.86C780.601 1259.59 779.769 1255.6 778.82 1251.32L767.384 1255.79C768.333 1260.06 769.165 1264.05 770.114 1268.33ZM774.981 1290.65L786.417 1286.19C785.468 1281.91 784.636 1277.92 783.687 1273.65L772.251 1278.11C773.084 1282.1 774.032 1286.38 774.981 1290.65ZM779.848 1312.98L791.284 1308.51C790.335 1304.23 789.503 1300.24 788.554 1295.97L777.118 1300.44C777.951 1304.43 778.9 1308.7 779.848 1312.98ZM784.373 1335.11L795.808 1330.64C794.86 1326.37 794.027 1322.38 793.078 1318.1L781.642 1322.57C782.818 1326.75 783.54 1331.12 784.373 1335.11ZM789.013 1357.53L800.449 1353.06C799.5 1348.79 798.894 1344.7 797.945 1340.43L786.509 1344.89C787.458 1349.17 788.064 1353.25 789.013 1357.53ZM793.428 1380.04L804.863 1375.57C803.914 1371.3 803.308 1367.21 802.359 1362.94L790.924 1367.41C791.872 1371.68 792.705 1375.67 793.428 1380.04ZM797.842 1402.55L809.278 1398.09C808.329 1393.81 807.722 1389.73 806.773 1385.45L795.338 1389.92C796.287 1394.19 796.893 1398.28 797.842 1402.55ZM802.03 1425.16L813.465 1420.7C812.743 1416.33 811.91 1412.34 811.188 1407.97L799.752 1412.43C800.474 1416.8 801.307 1420.79 802.03 1425.16ZM806.217 1447.77L817.653 1443.3C816.93 1438.93 815.982 1434.66 815.375 1430.58L803.94 1435.04C804.662 1439.41 805.385 1443.78 806.217 1447.77ZM810.295 1470.76L821.731 1466.29C821.008 1461.92 820.286 1457.55 819.453 1453.56L808.018 1458.03C808.624 1462.11 809.573 1466.39 810.295 1470.76ZM814.03 1493.56L825.466 1489.09C824.743 1484.72 824.021 1480.35 823.298 1475.98L811.863 1480.45C812.701 1485.1 813.424 1489.47 814.03 1493.56ZM817.882 1516.64L829.317 1512.17C828.595 1507.81 827.872 1503.44 827.15 1499.07L815.714 1503.53C816.436 1507.9 817.159 1512.27 817.882 1516.64ZM821.849 1540.01L833.285 1535.54C832.562 1531.17 831.84 1526.8 831.117 1522.43L819.682 1526.9C820.404 1531.27 821.127 1535.64 821.849 1540.01ZM825.474 1563.19L836.91 1558.72C836.187 1554.35 835.465 1549.98 834.969 1545.52L823.533 1549.98C824.029 1554.45 824.752 1558.82 825.474 1563.19ZM828.989 1586.75L840.425 1582.28C839.702 1577.91 839.206 1573.45 838.483 1569.08L827.048 1573.54C827.544 1578.01 828.266 1582.38 828.989 1586.75ZM843.713 1605.93C842.991 1601.56 842.495 1597.1 841.772 1592.73L830.336 1597.2C831.059 1601.57 831.555 1606.03 832.277 1610.4L843.713 1605.93ZM914.242 1577.33C909.258 1542.37 903.936 1507.89 898.395 1474.17L831.262 1501.35C836.919 1535.35 842.124 1569.55 847.109 1604.51L914.242 1577.33ZM927.133 1558.23L915.697 1562.7C916.42 1567.07 916.916 1571.53 917.638 1575.9L929.074 1571.44C928.351 1567.07 927.855 1562.6 927.133 1558.23ZM923.618 1534.68L912.182 1539.14C912.905 1543.51 913.401 1547.98 914.123 1552.35L925.559 1547.88C924.836 1543.51 924.34 1539.05 923.618 1534.68ZM919.877 1511.21L908.441 1515.68C909.163 1520.05 909.886 1524.42 910.382 1528.88L921.818 1524.42C921.322 1519.95 920.599 1515.58 919.877 1511.21ZM916.252 1488.03L904.816 1492.5C905.539 1496.87 906.261 1501.24 906.984 1505.61L918.419 1501.14C917.58 1496.49 916.858 1492.12 916.252 1488.03ZM912.51 1464.57L901.075 1469.04C901.797 1473.41 902.52 1477.78 903.242 1482.15L914.678 1477.68C913.956 1473.31 913.233 1468.94 912.51 1464.57ZM908.549 1441.87L897.113 1446.33C897.836 1450.7 898.558 1455.07 899.281 1459.44L910.717 1454.98C910.104 1450.23 909.271 1446.24 908.549 1441.87ZM904.471 1418.88L893.035 1423.34C893.758 1427.71 894.481 1432.08 895.313 1436.07L906.749 1431.61C906.143 1427.52 905.42 1423.15 904.471 1418.88ZM900.51 1396.17L889.074 1400.64C889.797 1405.01 890.746 1409.29 891.352 1413.37L902.787 1408.9C902.065 1404.53 901.232 1400.54 900.51 1396.17ZM896.322 1373.57L884.886 1378.03C885.609 1382.4 886.441 1386.39 887.164 1390.76L898.6 1386.3C897.877 1381.93 897.155 1377.56 896.322 1373.57ZM892.134 1350.96L880.699 1355.42C881.647 1359.7 882.254 1363.78 883.203 1368.06L894.638 1363.59C893.689 1359.32 892.74 1355.04 892.134 1350.96ZM887.72 1328.44L876.284 1332.91C877.233 1337.19 877.839 1341.27 878.788 1345.55L890.224 1341.08C889.275 1336.8 888.326 1332.53 887.72 1328.44ZM883.079 1306.03L871.644 1310.49C872.593 1314.77 873.425 1318.76 874.148 1323.13L885.583 1318.66C884.861 1314.29 884.028 1310.3 883.079 1306.03ZM878.439 1283.61L867.003 1288.07C867.952 1292.35 868.785 1296.34 869.733 1300.61L881.169 1296.15C880.337 1292.16 879.388 1287.88 878.439 1283.61ZM873.572 1261.28L862.136 1265.75C863.085 1270.03 863.917 1274.02 864.866 1278.29L876.302 1273.82C875.469 1269.83 874.521 1265.56 873.572 1261.28ZM868.821 1239.25L857.385 1243.71C858.334 1247.99 859.167 1251.98 860.116 1256.25L871.552 1251.79C870.603 1247.51 869.654 1243.24 868.821 1239.25ZM863.954 1216.92L852.518 1221.39C853.467 1225.66 854.3 1229.65 855.249 1233.93L866.685 1229.46C865.736 1225.19 864.787 1220.91 863.954 1216.92ZM858.861 1194.69L847.425 1199.16C848.374 1203.44 849.206 1207.43 850.382 1211.61L861.817 1207.14C860.642 1202.96 859.81 1198.97 858.861 1194.69ZM853.541 1172.56L842.105 1177.03C843.054 1181.3 844.113 1185.2 845.062 1189.47L856.498 1185.01C855.549 1180.73 854.49 1176.84 853.541 1172.56ZM848.221 1150.43L836.785 1154.89C837.734 1159.17 838.91 1163.35 839.742 1167.34L851.178 1162.87C850.229 1158.6 849.054 1154.42 848.221 1150.43ZM842.785 1128.01L831.349 1132.48C832.525 1136.66 833.474 1140.93 834.306 1144.92L845.742 1140.45C844.909 1136.46 843.734 1132.28 842.785 1128.01ZM837.239 1105.97L825.803 1110.44C826.979 1114.62 827.927 1118.89 829.103 1123.07L840.538 1118.61C839.247 1114.14 838.072 1109.96 837.239 1105.97ZM831.35 1083.74L819.914 1088.21C821.09 1092.39 822.039 1096.66 823.214 1100.84L834.65 1096.38C833.474 1092.2 832.525 1087.92 831.35 1083.74ZM825.461 1061.52L814.025 1065.98C815.201 1070.16 816.376 1074.34 817.325 1078.62L828.761 1074.15C827.812 1069.88 826.637 1065.7 825.461 1061.52ZM819.107 1038.15L807.672 1042.61C808.498 1045.94 809.551 1049.17 810.377 1052.49C810.616 1053.73 811.081 1054.87 811.32 1056.1L822.756 1051.64C822.517 1050.4 822.052 1049.26 821.813 1048.03C820.987 1044.7 820.16 1041.38 819.107 1038.15ZM812.398 1013.26L800.962 1017.73C802.37 1022.48 803.435 1027.04 804.843 1031.79L816.279 1027.32C814.987 1022.85 813.806 1018.01 812.398 1013.26ZM809.57 1002.43C808.279 997.966 807.097 993.121 805.689 988.372L794.253 992.838C795.661 997.588 796.727 1002.15 798.134 1006.9L809.57 1002.43Z" fill="#63035F"/>
<path d="M395.817 405.269C396.923 402.79 398.373 400.503 399.597 398.311L393.946 400.683C391.662 399.628 389.495 398.859 387.101 398.185L398.52 393.727C399.658 393.921 400.687 394.496 401.942 394.977C402.387 394.119 402.722 393.642 403.166 392.784C401.225 391.921 399.175 391.438 397.351 390.861L378.473 398.45C383.711 399.608 389.643 401.818 395.817 405.269Z" fill="#63035F"/>
<path d="M351.003 397.385C350.311 397.675 349.62 397.966 348.928 398.256C348.697 398.353 348.697 398.353 348.467 398.45C349.389 398.062 350.081 397.772 351.003 397.385L358.267 394.671C358.959 394.381 359.881 393.994 360.573 393.703C361.264 393.413 361.725 393.219 362.417 392.929L351.695 397.095C351.464 397.191 351.234 397.288 351.003 397.385Z" fill="#63035F"/>
<path d="M359.728 393.477L349.467 397.449C350.159 397.159 351.081 396.772 351.773 396.482L359.728 393.477Z" fill="#63035F"/>
<path d="M361.923 392.259L361.469 392.449C361.696 392.354 361.696 392.354 361.923 392.259Z" fill="#63035F"/>
<path d="M410.226 398.497C410.673 397.642 411.12 396.786 411.341 396.026C410.771 395.931 410.312 395.455 409.742 395.361L400.907 399.069C400.35 400.305 399.566 401.636 399.009 402.872L410.226 398.497Z" fill="#63035F"/>
<path d="M406.437 406.765L405.984 406.955C405.525 406.48 404.955 406.385 404.612 406.195L400.308 408.002C401.679 408.762 403.394 409.712 404.882 410.758C405.323 409.237 405.88 408.001 406.437 406.765Z" fill="#63035F"/>
<path d="M393.797 380.343C397.195 378.917 400.594 377.49 404.109 376.349L366.947 391.28C374.876 387.951 382.922 384.908 390.852 381.58L393.797 380.343Z" fill="#63035F"/>
<path d="M403.594 394.601L405.86 393.65C405.29 393.555 404.947 393.365 404.378 393.27C404.151 393.365 403.814 393.84 403.594 394.601Z" fill="#63035F"/>
<path d="M434.828 365.794C435.618 365.128 436.524 364.748 437.087 364.178L425.643 368.647C424.853 369.313 423.947 369.693 423.384 370.264L434.828 365.794Z" fill="#63035F"/>
<path d="M400.497 403.918C400.155 403.728 399.469 403.348 399.126 403.158C398.789 403.633 398.569 404.394 398.232 404.869L400.497 403.918Z" fill="#63035F"/>
<path d="M375.795 388.904L422.019 370.169C421.229 370.834 420.55 371.12 419.986 371.69L378.294 388.523C383.18 388.142 388.642 388.521 394.227 389.85L390.828 391.277C389.346 390.897 387.865 390.517 386.272 390.517L374.828 394.987C376.194 395.082 377.675 395.462 379.384 395.747L375.079 397.554C368.129 396.129 361.645 395.845 355.625 396.702C356.305 396.417 356.868 395.846 357.548 395.561C358.344 395.561 359.25 395.181 360.046 395.18L371.491 390.711C369.788 391.091 367.743 391.282 366.157 391.947L360.946 394.135C361.626 393.849 362.532 393.469 363.096 392.899C363.775 392.613 364.455 392.328 365.135 392.043C368.417 390.331 372.048 389.475 375.795 388.904ZM375.918 389.854L364.473 394.324C366.292 394.229 368.337 394.038 370.272 394.228L381.717 389.758C379.671 389.948 377.736 389.759 375.918 389.854Z" fill="#63035F"/>
<path d="M425.63 367.318C427.896 366.367 430.161 365.416 432.427 364.465L415.319 371.311C418.607 370.266 422.005 368.839 425.63 367.318Z" fill="#63035F"/>
<path d="M435.716 363.417C435.036 363.702 434.357 363.987 433.677 364.273C434.583 363.892 435.49 363.512 436.513 363.418L442.856 360.755C443.536 360.47 444.442 360.089 445.121 359.804C445.801 359.519 446.254 359.329 446.934 359.043L436.396 363.131C436.169 363.227 435.943 363.322 435.716 363.417L432.544 364.748C433.451 364.368 434.583 363.892 435.716 363.417Z" fill="#63035F"/>
<path d="M272.861 608.116C273.295 605.93 273.503 603.838 273.938 601.652L269.633 603.459C269.523 603.839 269.64 604.124 269.529 604.505C271.716 607.261 273.902 610.017 276.314 612.677L283.111 609.825C283.007 610.87 282.56 611.726 282.456 612.771L285.854 611.345C286.068 609.919 286.282 608.493 286.723 606.972C285.805 606.022 284.77 604.787 283.961 603.456L272.861 608.116Z" fill="#63035F"/>
<path d="M273.142 589.295C272.683 588.82 272.45 588.25 272.107 588.061C272.113 588.726 271.892 589.486 271.782 589.866L273.142 589.295Z" fill="#63035F"/>
<path d="M331.156 640.424C331.836 640.139 332.625 639.473 333.189 638.903L329.79 640.329C328.547 641.185 327.531 641.946 326.172 642.516C326.625 642.326 327.078 642.136 327.647 642.231L339.091 637.761C338.185 638.142 337.163 638.237 336.256 638.617L331.156 640.424Z" fill="#63035F"/>
<path d="M275.065 649.94C274.508 651.176 273.724 652.507 272.941 653.838L254.02 661.446C261.171 647.757 265.31 627.985 268.768 608.498C270.262 610.209 271.53 612.015 272.908 613.44L271.775 613.916C271.23 616.482 270.802 619.334 270.257 621.9L277.733 618.762C279.57 620.663 281.408 622.564 283.245 624.464C281.273 632.639 279.069 640.244 276.516 646.993L299.288 637.768C299.974 638.148 300.777 638.814 301.462 639.194L275.065 649.94ZM266.976 635.969L278.42 631.499C278.965 628.933 279.736 626.271 280.281 623.704L268.837 628.174C268.408 631.026 267.747 633.307 266.976 635.969ZM263.112 648.612L274.557 644.142C275.218 641.861 276.106 639.484 276.767 637.203L265.323 641.672C264.778 644.239 264.116 646.521 263.112 648.612ZM272.671 649.275L261.227 653.745C260.223 655.836 259.445 657.833 258.441 659.924L269.885 655.454C270.889 653.363 271.667 651.367 272.671 649.275Z" fill="#63035F"/>
<path d="M313.454 632.158L302.01 636.628C302.696 637.008 303.499 637.673 304.184 638.053L315.628 633.584C314.942 633.204 314.257 632.823 313.454 632.158Z" fill="#63035F"/>
<path d="M257.519 670.664C256.612 671.045 255.48 671.52 254.457 671.615L257.519 670.664C258.645 669.523 260.115 668.573 261.241 667.432L249.797 671.901C249.797 671.901 249.797 671.901 249.571 671.997C248.775 671.997 247.979 671.997 247.066 671.712C248.867 669.62 250.44 667.624 252.007 664.962L270.928 657.355C268.246 662.488 263.862 668.002 257.519 670.664ZM252.724 668.669L264.168 664.2C265.405 662.678 266.415 661.253 267.535 659.446L256.091 663.916C254.971 665.722 253.961 667.148 252.724 668.669Z" fill="#63035F"/>
<path d="M447.045 358.661C446.365 358.947 445.686 359.232 445.006 359.517L447.045 358.661Z" fill="#63035F"/>
<path d="M410.288 405.148C409.401 407.525 408.17 409.711 407.282 412.088C393.28 447.355 385.849 492.222 379.58 527.583C378.607 533.001 377.866 538.99 376.672 545.169C371.427 580.434 364.454 625.776 343.96 635.381C343.733 635.476 343.28 635.666 343.054 635.761C342.148 636.142 341.015 636.617 339.992 636.712L342.258 635.761C343.727 634.811 344.97 633.955 346.324 632.719L335.106 637.094C334.31 637.094 333.74 636.999 332.944 636.999C336.434 633.196 339.006 628.443 341.798 622.929L319.252 632.059C318.566 631.679 317.764 631.014 317.078 630.634L343.022 620.077C349.806 603.537 353.804 580.818 356.797 560.191L289.613 587.39C288.86 592.048 288.107 596.706 287.354 601.363C286.436 600.413 285.627 599.082 284.709 598.132C284.813 597.086 284.917 596.041 285.137 595.28L283.098 596.136C281.947 594.616 280.912 593.38 279.761 591.86L286.104 589.197C286.649 586.63 286.851 583.874 287.17 581.402L275.725 585.872C275.842 586.157 275.615 586.252 275.731 586.537C274.58 585.017 273.429 583.496 272.504 581.88C273.147 577.603 273.906 573.61 274.439 569.713C284.906 508.877 299.892 420.094 343.715 400.029C344.395 399.744 345.075 399.459 345.754 399.173L348.7 397.937C349.379 397.652 350.285 397.271 350.965 396.986L350.059 397.366C349.379 397.652 348.7 397.937 348.02 398.222C347.793 398.317 347.793 398.317 347.567 398.412C346.887 398.698 346.434 398.888 345.754 399.173L350.059 397.366L357.082 394.418C357.762 394.133 358.668 393.753 359.348 393.467C360.027 393.182 360.481 392.992 361.16 392.706L361.387 392.611C361.613 392.516 361.613 392.516 361.84 392.421L366.371 390.519C374.301 387.191 382.347 384.147 390.276 380.819L364.785 391.185C364.106 391.47 363.426 391.755 362.746 392.041C362.067 392.326 361.16 392.706 360.597 393.277C359.464 393.752 358.448 394.513 357.315 394.989C356.635 395.274 356.072 395.844 355.392 396.13C349.741 399.838 344.671 404.972 340.177 410.866L374.846 396.981L379.151 395.174L390.595 390.704L393.993 389.278L407.703 383.857C411.977 378.723 415.694 374.825 420.096 371.307C420.66 370.737 421.566 370.357 422.129 369.786C424.952 367.599 428.234 365.888 432.312 364.176L425.515 367.029C427.781 366.078 430.046 365.127 432.312 364.176C433.445 363.701 434.578 363.225 435.484 362.845C434.804 363.13 434.124 363.415 433.445 363.701C432.765 363.986 431.859 364.366 431.179 364.652L442.507 359.897C443.187 359.611 444.093 359.231 444.773 358.946C445.452 358.66 445.905 358.47 446.585 358.185L450.663 356.473C449.984 356.758 449.304 357.044 448.624 357.329C447.945 357.614 447.265 357.899 446.701 358.47C445.342 359.04 444.326 359.801 443.083 360.657C442.63 360.847 442.066 361.417 441.613 361.608C441.16 361.798 440.707 361.988 440.597 362.368C440.033 362.939 439.127 363.319 438.564 363.89C428.742 371.686 420.66 383.094 413.509 396.783C413.062 397.639 412.615 398.494 412.168 399.35C411.96 401.441 411.182 403.437 410.288 405.148ZM372.937 547.07L361.493 551.54C361.175 554.012 360.63 556.578 360.428 559.335L371.872 554.865C372.191 552.394 372.619 549.542 372.937 547.07ZM374.015 540.607C374.443 537.755 374.988 535.188 375.19 532.432L363.746 536.902C363.201 539.468 362.999 542.225 362.57 545.076L374.015 540.607ZM376.163 527.014C376.598 524.827 376.916 522.356 377.351 520.169L365.906 524.639C365.472 526.826 365.154 529.297 364.719 531.483L376.163 527.014ZM386.782 433.384C385.895 435.761 385.233 438.042 384.689 440.609L396.133 436.139C396.794 433.857 397.682 431.481 398.227 428.914L386.782 433.384ZM399.88 423.211C400.767 420.834 401.429 418.553 402.433 416.461L390.989 420.931C390.101 423.308 389.323 425.304 388.435 427.681L399.88 423.211ZM392.043 448.877C392.588 446.31 393.476 443.934 394.137 441.652L382.693 446.122C382.032 448.403 381.26 451.065 380.599 453.346L392.043 448.877ZM379.289 459.24C378.744 461.807 378.083 464.088 377.538 466.655L388.982 462.185C389.527 459.618 390.188 457.337 390.733 454.77L379.289 459.24ZM382.386 437.567L315.202 464.766C309.233 483.303 304.758 503.55 300.956 522.847L368.14 495.648C372.052 475.971 376.643 456.009 382.386 437.567ZM369.378 506.483L380.822 502.014C381.14 499.542 381.685 496.976 382.12 494.789L370.675 499.259C370.014 501.541 369.696 504.012 369.378 506.483ZM368.178 511.997C367.859 514.468 367.198 516.75 366.88 519.221L378.324 514.751C378.642 512.28 379.077 510.094 379.622 507.527L368.178 511.997ZM384.611 481.386L373.167 485.856C372.622 488.423 372.304 490.894 371.759 493.461L383.203 488.991C383.632 486.139 383.95 483.668 384.611 481.386ZM385.921 475.493C386.466 472.926 387.011 470.36 387.672 468.078L376.228 472.548C375.683 475.115 375.138 477.681 374.477 479.963L385.921 475.493ZM404.319 411.328C404.429 410.948 404.655 410.853 404.765 410.473C405.323 409.237 405.88 408.001 406.437 406.765C406.774 406.29 406.994 405.529 407.331 405.054L404.612 406.195L400.308 408.002L396.003 409.809C394.999 411.9 393.995 413.992 393.333 416.273L404.319 411.328ZM397.889 404.676L408.99 400.016C409.327 399.54 409.547 398.78 409.884 398.305C410.331 397.449 410.778 396.594 410.998 395.833C411.335 395.358 411.555 394.597 411.892 394.122L400.564 398.877C400.007 400.113 399.223 401.444 398.666 402.679L398.556 403.06C398.562 403.725 398.225 404.2 397.889 404.676ZM425.76 368.93C424.97 369.596 424.064 369.976 423.501 370.546L434.945 366.077C435.735 365.411 436.641 365.031 437.204 364.46C437.768 363.89 438.674 363.509 439.237 362.939L427.793 367.409C427.23 367.979 426.55 368.264 425.76 368.93ZM416.172 377.297L427.616 372.827C428.853 371.306 430.206 370.07 431.559 368.834L420.115 373.304C418.762 374.54 417.408 375.776 416.172 377.297ZM409.534 385.092L420.979 380.623C422.215 379.101 423.336 377.295 424.689 376.059L413.245 380.529C412.008 382.05 410.771 383.571 409.534 385.092ZM406.957 389.18C406.173 390.511 405.389 391.842 404.605 393.173C404.269 393.648 403.932 394.124 403.595 394.599L414.697 389.939C415.817 388.133 416.937 386.327 418.058 384.52L406.957 389.18ZM338.952 413.718C329.517 426.362 322.28 443.093 316.194 461.344L383.378 434.145C386.806 423.689 390.694 413.707 395.047 404.866C396.162 402.395 397.619 400.113 398.85 397.927C399.633 396.596 400.191 395.36 401.091 394.314C401.538 393.459 401.874 392.983 402.321 392.128C403.668 390.226 404.789 388.42 406.136 386.519L396.62 390.513L338.952 413.718ZM338.076 405.068L349.52 400.598C350.874 399.362 352.343 398.411 353.813 397.461L342.368 401.931C341.125 402.786 339.656 403.737 338.076 405.068ZM330.857 411.438L342.301 406.968C343.538 405.447 344.891 404.211 346.244 402.975L334.8 407.445C333.563 408.966 332.21 410.202 330.857 411.438ZM324.109 419.614L335.554 415.144C336.791 413.623 337.911 411.817 339.264 410.581L327.82 415.051C326.583 416.572 325.346 418.093 324.109 419.614ZM318.054 428.836L329.498 424.366C330.619 422.559 331.739 420.753 332.86 418.947L321.415 423.417C320.295 425.223 319.174 427.029 318.054 428.836ZM312.69 439.102L324.135 434.633C325.139 432.541 326.259 430.735 327.263 428.643L315.819 433.113C314.588 435.3 313.695 437.011 312.69 439.102ZM307.676 450.225L319.12 445.755C320.124 443.663 320.786 441.382 321.79 439.291L310.345 443.76C309.458 446.137 308.453 448.228 307.676 450.225ZM303.127 462.487L314.571 458.018C315.459 455.641 316.12 453.36 317.124 451.268L305.68 455.738C304.903 457.734 304.015 460.111 303.127 462.487ZM299.147 474.845L310.592 470.375C311.253 468.094 312.141 465.717 312.686 463.151L301.241 467.621C300.696 470.187 299.809 472.564 299.147 474.845ZM295.401 487.773L306.845 483.303C307.39 480.737 308.277 478.36 308.939 476.079L297.494 480.549C296.833 482.83 296.062 485.492 295.401 487.773ZM292.113 501.176L303.557 496.706C304.102 494.14 304.763 491.858 305.308 489.292L293.864 493.762C293.203 496.043 292.658 498.61 292.113 501.176ZM289.052 514.484L300.496 510.014C301.041 507.448 301.586 504.881 302.247 502.6L290.803 507.07C290.142 509.351 289.597 511.918 289.052 514.484ZM286.444 527.602L297.889 523.132C298.433 520.566 298.752 518.094 299.297 515.528L287.852 519.998C287.424 522.849 286.763 525.131 286.444 527.602ZM283.836 540.72L295.281 536.25C295.599 533.779 296.144 531.212 296.578 529.026L285.134 533.496C284.816 535.967 284.498 538.439 283.836 540.72ZM281.682 553.648L293.126 549.178C293.444 546.706 293.879 544.52 294.424 541.954L282.979 546.423C282.435 548.99 282 551.176 281.682 553.648ZM279.521 565.91L290.965 561.44C291.4 559.254 291.718 556.782 292.153 554.596L280.708 559.066C280.274 561.252 279.955 563.724 279.521 565.91ZM288.7 574.748C289.129 571.896 289.673 569.33 289.875 566.573L278.431 571.043C277.886 573.61 277.684 576.366 277.256 579.218L288.7 574.748ZM357.905 557.054C358.119 555.628 358.334 554.202 358.438 553.157C359.288 546.788 360.372 540.99 361.345 535.571C363.286 524.07 365.447 511.807 367.718 499.165L300.534 526.364C298.036 539.101 295.875 551.364 294.161 562.77C293.188 568.188 292.448 574.177 291.254 580.356C291.04 581.782 290.709 582.922 290.721 584.253L357.905 557.054ZM358.286 573.593L369.73 569.123C370.275 566.557 370.703 563.705 371.021 561.234L359.577 565.704C359.032 568.27 358.714 570.742 358.286 573.593ZM355.574 587.757L367.018 583.287C367.563 580.72 367.991 577.869 368.536 575.302L357.092 579.772C356.663 582.624 356.118 585.19 355.574 587.757ZM352.402 601.445L363.847 596.975C364.392 594.409 365.163 591.747 365.708 589.181L354.263 593.65C353.608 596.597 353.064 599.164 352.402 601.445ZM348.429 614.468L359.873 609.998C360.535 607.717 361.422 605.34 362.083 603.059L350.639 607.529C349.978 609.81 349.317 612.092 348.429 614.468ZM343.868 625.4L355.312 620.93C356.432 619.124 357.21 617.128 358.098 614.751L346.654 619.221C345.766 621.598 344.645 623.404 343.868 625.4ZM352.734 625.018L341.29 629.488C340.17 631.294 339.159 632.72 337.922 634.241L349.367 629.771C350.604 628.25 351.614 626.824 352.734 625.018Z" fill="#63035F"/>
<path d="M242.449 676.655L253.893 672.185C252.987 672.566 251.964 672.661 251.058 673.041L246.074 675.133C246.754 674.848 247.544 674.183 248.107 673.612L243.803 675.419C242.786 676.18 241.77 676.94 240.637 677.416C241.317 677.13 241.77 676.94 242.449 676.655Z" fill="#63035F"/>
<path d="M425.403 367.411C422.005 368.838 418.607 370.264 415.092 371.405L403.875 375.78C400.476 377.207 397.078 378.633 393.564 379.774L425.403 367.411Z" fill="#63035F"/>
<path d="M340.334 636.903C341.357 636.808 342.489 636.333 343.396 635.952L324.701 643.465C318.015 645.938 312.204 644.704 307.409 642.708L252.233 664.867L240.109 669.622C242.736 670.857 245.014 671.237 247.292 671.617C248.088 671.617 249 671.902 249.796 671.902C251.388 671.901 252.981 671.901 254.457 671.615C255.706 671.425 256.612 671.045 257.519 670.664L238.597 678.272C232.933 680.65 226.105 680.176 217.992 675.9C201.997 667.919 182.12 645.871 158.592 610.326C79.9381 491.715 41.0727 359.409 22.2695 269.113C2.16167 173.018 -2.10429 92.984 0.838433 42.32L105.637 0C105.753 0.285136 105.643 0.665419 105.643 0.665419C105.441 3.422 105.35 5.7983 105.264 8.84002C105.27 9.50539 105.16 9.88561 105.166 10.551C105.081 13.5927 104.995 16.6344 104.909 19.6762C104.916 20.3415 104.922 21.0069 104.928 21.6723C104.959 24.9992 104.873 28.0409 104.794 31.748C104.824 35.0748 104.972 38.6868 104.892 42.3939C104.898 43.0592 104.904 43.7247 105.027 44.6752C105.174 48.2872 105.321 51.8991 105.242 55.6062C105.248 56.2716 105.254 56.937 105.26 57.6023C105.291 60.9292 105.438 64.5412 105.812 68.0581C105.818 68.7234 105.708 69.1037 105.941 69.674C106.204 73.5711 106.468 77.4682 106.505 81.4604C106.627 82.4109 106.633 83.0763 106.756 84.0268C107.136 88.209 107.399 92.1062 107.669 96.6687C107.785 96.9539 107.675 97.3341 107.791 97.6192C108.055 101.516 108.435 105.699 108.815 109.881C108.937 110.831 108.943 111.497 109.066 112.447C109.446 116.629 109.942 121.097 110.438 125.564C110.561 126.515 110.683 127.465 110.689 128.131C111.186 132.598 111.792 136.685 112.288 141.153C112.404 141.438 112.411 142.103 112.527 142.388C113.14 147.141 113.752 151.893 114.591 156.551C114.714 157.501 114.953 158.737 115.075 159.687C115.688 164.44 116.643 169.383 117.256 174.135C117.262 174.8 117.495 175.371 117.617 176.321C118.456 180.979 119.179 185.351 120.018 190.008C120.141 190.959 120.263 191.909 120.496 192.48C121.451 197.422 122.18 202.46 123.252 207.688C123.375 208.638 123.614 209.874 123.852 211.109C124.924 216.337 125.996 221.565 127.184 227.078C145.871 317.089 184.853 449.68 263.507 568.291C266.851 573.233 269.962 577.605 272.846 582.072C273.997 583.592 275.149 585.113 276.073 586.729C277.341 588.534 278.608 590.34 279.76 591.861C280.911 593.381 282.062 594.902 283.097 596.137C283.673 596.898 284.248 597.658 284.708 598.133C285.626 599.084 286.435 600.414 287.353 601.364C298.394 614.765 308.266 624.648 317.188 630.255C317.873 630.635 318.676 631.3 319.361 631.68C320.39 632.25 321.419 632.82 322.448 633.39C326.22 635.481 329.753 636.335 333.17 636.905C333.966 636.905 334.535 637 335.331 637C337.04 637.284 338.858 637.189 340.334 636.903ZM295.914 617.141L284.47 621.611C287.226 624.462 289.865 627.028 292.731 629.499L304.175 625.029C301.309 622.558 298.67 619.993 295.914 617.141ZM286.723 606.972C285.805 606.022 284.77 604.787 283.961 603.456C282.81 601.936 281.432 600.51 280.281 598.99L273.938 601.652L268.953 603.745C269.069 604.03 269.412 604.22 269.528 604.505C271.715 607.261 273.901 610.016 276.314 612.677C276.89 613.438 277.465 614.199 277.924 614.674L282.456 612.771L285.854 611.345L289.252 609.919C288.56 608.873 287.642 607.923 286.723 606.972ZM34.9794 229.378C36.8965 239.928 38.9301 250.764 41.3065 261.79C45.8266 283.271 51.394 307.318 58.4555 333.076L125.639 305.877C118.578 280.119 112.784 256.167 108.49 234.591C106.114 223.565 104.08 212.729 102.163 202.179L34.9794 229.378ZM101.195 195.906C94.7089 158.551 90.6412 124.523 88.5394 94.0111L21.3556 121.21C23.4574 151.722 27.5252 185.75 34.0117 223.104L101.195 195.906ZM60.103 339.064C70.3308 375.182 83.0876 414.246 99.7206 454.355L166.904 427.157C150.498 386.952 137.398 347.698 127.287 311.865L60.103 339.064ZM102.63 461.484C119.605 501.783 139.888 543.032 164.708 583.044L231.892 555.845C207.072 515.833 186.789 474.584 169.813 434.285L102.63 461.484ZM244.176 568.39L255.62 563.92C252.277 558.978 249.043 553.656 245.926 548.618L234.482 553.088C237.599 558.125 240.832 563.448 244.176 568.39ZM251.904 580.175C255.248 585.117 258.475 589.774 261.812 594.051L271.897 590.151L273.257 589.581C272.797 589.106 272.565 588.535 272.222 588.345C269.344 584.544 266.576 580.362 263.465 575.99L251.904 580.175ZM218.535 525.716C221.426 530.848 224.316 535.981 227.55 541.303L238.994 536.833C235.877 531.796 232.986 526.664 229.98 521.246L218.535 525.716ZM214.939 493.494L203.495 497.964C206.159 503.191 208.823 508.418 211.713 513.551L223.158 509.081C220.267 503.949 217.603 498.721 214.939 493.494ZM201.264 465.836L189.82 470.306C192.257 475.628 194.805 480.571 197.242 485.893L208.687 481.423C206.366 476.386 203.702 471.159 201.264 465.836ZM188.729 438.368L177.284 442.838C179.379 447.971 181.816 453.293 184.137 458.33L195.581 453.861C193.487 448.728 191.05 443.406 188.729 438.368ZM177.558 410.995L166.114 415.465C168.208 420.598 170.303 425.73 172.397 430.862L183.842 426.393C181.747 421.26 179.653 416.128 177.558 410.995ZM167.3 383.907L155.856 388.377C157.608 393.319 159.702 398.452 161.454 403.394L172.898 398.924C170.92 394.077 169.052 388.85 167.3 383.907ZM157.845 357.484L146.4 361.954C148.152 366.897 149.677 371.934 151.428 376.877L162.873 372.407C161.348 367.369 159.596 362.427 157.845 357.484ZM149.644 331.537L138.2 336.006C139.608 340.759 141.243 345.416 142.768 350.454L154.213 345.984C152.578 341.326 151.169 336.574 149.644 331.537ZM142.136 306.634L130.691 311.104C131.983 315.571 133.392 320.324 134.801 325.076L146.245 320.606C144.836 315.854 143.544 311.387 142.136 306.634ZM135.772 282.587L124.328 287.057C125.62 291.524 126.686 296.086 127.978 300.554L139.422 296.084C138.13 291.617 136.838 287.149 135.772 282.587ZM130.101 259.585L118.657 264.055C119.606 268.332 120.782 272.514 121.731 276.792L133.175 272.322C131.999 268.14 131.05 263.862 130.101 259.585ZM125.238 237.914L113.793 242.384C114.626 246.376 115.459 250.368 116.635 254.55L128.08 250.08C126.904 245.898 126.071 241.906 125.238 237.914ZM120.24 213.962L108.796 218.432C109.751 223.374 110.707 228.317 111.889 233.164L123.333 228.694C122.151 223.847 121.195 218.904 120.24 213.962ZM115.566 188.203L104.122 192.673C104.961 197.331 105.917 202.273 106.756 206.931L118.2 202.461C117.135 197.898 116.295 193.241 115.566 188.203ZM111.585 163.49L100.141 167.96C100.98 172.618 101.476 177.085 102.315 181.742L113.76 177.273C112.92 172.615 112.198 168.243 111.585 163.49ZM108.296 139.823L96.8513 144.293C97.3476 148.76 98.0703 153.132 98.5665 157.6L110.011 153.13C109.398 148.377 108.675 144.005 108.296 139.823ZM105.582 116.915L94.1375 121.385C94.5174 125.568 94.8972 129.75 95.62 134.122L107.064 129.652C106.684 125.47 105.962 121.098 105.582 116.915ZM103.676 95.3388L92.232 99.8086C92.4955 103.706 92.8754 107.888 93.1389 111.785L104.583 107.315C104.32 103.418 103.94 99.2359 103.676 95.3388ZM102.236 74.9026L90.7921 79.3724C90.9392 82.9844 91.2027 86.8816 91.4662 90.7787L102.911 86.3089C102.647 82.4117 102.384 78.5146 102.236 74.9026ZM101.488 55.5119L90.0439 59.9818C90.1911 63.5938 90.2219 66.9206 90.4854 70.8177L101.93 66.3479C101.783 62.7359 101.635 59.1239 101.488 55.5119ZM101.095 37.642L89.6512 42.1118C89.682 45.4387 89.7128 48.7655 89.7436 52.0924L101.188 47.6226C101.157 44.2957 101.126 40.9689 101.095 37.642ZM101.168 20.9126L89.7238 25.3825C89.6382 28.4242 89.5526 31.4659 89.4671 34.5076L100.911 30.0378C100.997 26.9961 101.082 23.9544 101.168 20.9126ZM90.268 10.459C90.0661 13.2156 90.0908 15.8771 90.0052 18.9188L101.449 14.4489C101.535 11.4072 101.51 8.74577 101.712 5.98918L90.268 10.459ZM19.7961 38.7042C18.6276 59.9013 18.9841 86.1358 20.8533 116.077L88.0371 88.8783C86.1679 58.9369 85.8114 32.7023 86.9799 11.5052L19.7961 38.7042ZM4.69054 53.0603L16.1348 48.5905C16.2204 45.5487 16.1958 42.8872 16.3977 40.1306L4.95346 44.6005C4.75153 47.3571 4.66591 50.3988 4.69054 53.0603ZM4.38525 69.2194L15.8295 64.7495C15.9151 61.7078 15.8843 58.381 16.0862 55.6244L4.64196 60.0942C4.44003 62.8508 4.35446 65.8925 4.38525 69.2194ZM4.54526 86.5191L15.9895 82.0492C15.9587 78.7224 15.928 75.3955 15.8972 72.0687L4.4529 76.5385C4.48369 79.8653 4.51447 83.1922 4.54526 86.5191ZM5.2872 105.244L16.7315 100.775C16.5843 97.1625 16.4372 93.5505 16.29 89.9386L4.84576 94.4084C4.76634 98.1155 5.14005 101.632 5.2872 105.244ZM6.26793 125.205L17.7122 120.735C17.4487 116.838 17.1852 112.941 17.038 109.329L5.59378 113.799C5.74092 117.411 6.00443 121.308 6.26793 125.205ZM8.05708 146.497L19.5014 142.027C19.1215 137.845 18.858 133.948 18.5945 130.051L7.15022 134.52C7.29736 138.132 7.67722 142.315 8.05708 146.497ZM10.4218 168.549L21.8661 164.079C21.4862 159.897 20.7634 155.524 20.3835 151.342L8.93924 155.812C9.3191 159.994 9.8154 164.462 10.4218 168.549ZM13.3683 192.026L24.8126 187.556C24.3164 183.089 23.5935 178.717 23.0973 174.249L11.653 178.719C12.1493 183.187 12.6456 187.654 13.3683 192.026ZM16.8904 216.264L28.3347 211.794C27.4956 207.137 26.883 202.384 26.1602 198.012L14.7159 202.482C15.5551 207.139 16.3942 211.797 16.8904 216.264ZM21.4475 241.737L32.8918 237.268C31.9363 232.325 31.0971 227.668 30.258 223.01L18.8137 227.48C19.6529 232.137 20.492 236.795 21.4475 241.737ZM26.5802 267.971L38.0245 263.501C37.069 258.559 36.1135 253.616 34.9314 248.769L23.4871 253.238C24.5528 257.801 25.5084 262.743 26.5802 267.971C26.4639 267.686 26.4639 267.686 26.5802 267.971ZM31.2105 289.072L42.6548 284.602C41.8218 280.61 40.8725 276.333 39.8129 272.436L28.3687 276.906C29.4282 280.803 30.2612 284.795 31.2105 289.072ZM36.6492 311.503L48.0934 307.034C47.1441 302.756 45.9682 298.574 45.0188 294.297L33.5746 298.767C34.4075 302.759 35.3569 307.036 36.6492 311.503ZM42.5533 335.075L53.9976 330.606C52.7054 326.138 51.6396 321.576 50.3473 317.109L38.903 321.579C40.1953 326.046 41.4876 330.513 42.5533 335.075ZM49.6025 359.503L61.0467 355.033C59.6381 350.28 58.2296 345.528 56.9374 341.061L45.4931 345.531C46.9017 350.283 48.3102 355.035 49.6025 359.503ZM57.6866 385.165L69.1309 380.695C67.606 375.658 65.9708 371.001 64.5622 366.248L53.1179 370.718C54.5265 375.47 55.9351 380.223 57.6866 385.165ZM66.4566 411.208L77.9008 406.738C76.1493 401.796 74.3977 396.853 72.8727 391.816L61.4285 396.286C62.9534 401.323 64.705 406.266 66.4566 411.208ZM76.1451 438.201L87.5893 433.731C85.4949 428.599 83.7434 423.656 81.9919 418.714L70.5476 423.184C72.5257 428.031 74.2772 432.974 76.1451 438.201ZM86.9724 465.384L98.4167 460.914C96.3223 455.782 94.2278 450.65 92.1334 445.517L80.6891 449.987C82.7835 455.119 84.878 460.252 86.9724 465.384ZM98.9389 492.757L110.383 488.287C108.062 483.25 105.625 477.927 103.53 472.795L92.0861 477.265C94.4071 482.302 96.6179 487.72 98.9389 492.757ZM112.16 520.605L123.605 516.135C120.941 510.908 118.504 505.585 116.183 500.548L104.738 505.018C107.059 510.055 109.497 515.378 112.16 520.605ZM126.515 547.977L137.959 543.508C135.069 538.375 132.405 533.148 129.741 527.921L118.297 532.39C120.961 537.618 123.625 542.845 126.515 547.977ZM142.009 575.54L153.453 571.07C150.336 566.033 147.445 560.9 144.438 555.483L132.994 559.953C136.001 565.37 138.892 570.502 142.009 575.54ZM158.978 602.816L170.422 598.347C167.078 593.405 163.845 588.082 160.728 583.045L149.284 587.515C152.401 592.552 155.634 597.874 158.978 602.816ZM166.706 614.601C170.049 619.544 173.277 624.201 176.614 628.477L188.058 624.007C184.947 619.635 181.72 614.979 178.15 610.132L166.706 614.601ZM204.054 644.345C201.065 640.924 198.077 637.503 195.082 633.416L183.638 637.886C186.859 641.878 189.621 645.394 192.609 648.815L204.054 644.345ZM218.634 659.266C216.111 656.985 213.245 654.514 210.373 651.378L198.929 655.848C201.685 658.699 204.324 661.265 207.19 663.736L218.634 659.266ZM220.698 673.428L232.143 668.958C229.742 667.628 227.225 666.013 224.935 664.302L213.491 668.772C215.897 670.768 218.298 672.098 220.698 673.428ZM243.685 675.135L236.889 677.988C238.138 677.797 239.387 677.607 240.636 677.416C241.089 677.226 241.885 677.226 242.338 677.036L253.783 672.566C252.876 672.947 251.854 673.042 250.948 673.422C250.152 673.422 249.245 673.803 248.449 673.803L248.223 673.898L243.685 675.135ZM237.396 671.429L225.952 675.899C228.12 676.659 230.288 677.419 232.449 677.513L243.893 673.043C241.732 672.949 239.564 672.189 237.396 671.429ZM304.439 641.283C303.068 640.523 302.039 639.953 301.01 639.383C300.324 639.003 299.522 638.338 298.836 637.958C293.803 634.727 288.53 630.26 283.019 624.558C281.182 622.658 279.461 621.042 277.508 618.856C276.014 617.146 274.176 615.245 272.682 613.534C271.304 612.109 270.037 610.303 268.543 608.592C261.066 599.374 253.117 588.349 244.47 575.614C241.586 571.147 238.702 566.68 235.817 562.213L168.633 589.412C171.518 593.879 174.402 598.346 177.286 602.813C200.698 638.073 220.575 660.121 236.686 668.387L237.029 668.577L253.911 661.825L272.831 654.217L304.439 641.283ZM306.013 639.287L317.457 634.817C316.771 634.437 316.428 634.247 315.969 633.772C315.283 633.392 314.481 632.726 313.795 632.346C312.65 631.491 311.621 630.921 310.36 629.781L298.916 634.25C300.061 635.106 301.206 635.961 302.351 636.816C303.037 637.196 303.839 637.862 304.525 638.242C304.868 638.432 305.554 638.812 306.013 639.287ZM317.764 643.372L329.208 638.902C327.273 638.712 325.105 637.952 322.711 637.287L311.267 641.757C313.661 642.422 315.829 643.182 317.764 643.372ZM339.091 637.759C338.185 638.14 337.162 638.235 336.256 638.615C335.46 638.615 334.554 638.996 333.758 638.996L322.656 643.656C323.905 643.466 325.155 643.275 326.63 642.99C327.083 642.8 327.537 642.609 328.106 642.704L339.091 637.759Z" fill="#63035F"/>
</g>
</svg>
