<svg width="196" height="181" viewBox="0 0 196 181" fill="none" xmlns="http://www.w3.org/2000/svg">
<path d="M196 1.84317L191.554 36.5548C180.686 35.8083 172.287 37.799 166.359 42.5267C160.431 47.2545 156.479 53.8484 154.503 62.3086C152.527 70.7688 152.156 80.3487 153.391 91.0483H196V181H114.117V83.5835C114.117 54.2216 121.033 32.0759 134.866 17.1462C148.945 1.9676 169.323 -3.1334 196 1.84317ZM81.8828 1.84317L77.4367 36.5548C66.5684 35.8083 58.1701 37.799 52.242 42.5267C46.3138 47.2545 42.3617 53.8484 40.3856 62.3086C38.4096 70.7688 38.0391 80.3487 39.2741 91.0483H81.8828V181H0V83.5835C0 54.2216 6.91619 32.0759 20.7486 17.1462C34.828 1.9676 55.206 -3.1334 81.8828 1.84317Z" fill="#2F3369"/>
</svg>
