<svg width="32" height="32" viewBox="0 0 32 32" fill="none" xmlns="http://www.w3.org/2000/svg">
<path d="M12 4V6.66667M20 4V6.66667M12 25.3333V28M20 25.3333V28M6.66667 12H4M6.66667 20H4M28 12H25.3333M28 20H25.3333M9.33333 25.3333H22.6667C24.1394 25.3333 25.3333 24.1394 25.3333 22.6667V9.33333C25.3333 7.86057 24.1394 6.66667 22.6667 6.66667H9.33333C7.86057 6.66667 6.66667 7.86057 6.66667 9.33333V22.6667C6.66667 24.1394 7.86057 25.3333 9.33333 25.3333ZM12 12H20V20H12V12Z" stroke="white" stroke-width="2" stroke-linecap="round" stroke-linejoin="round"/>
</svg>
