<svg width="55" height="44" viewBox="0 0 55 44" fill="none" xmlns="http://www.w3.org/2000/svg">
<g filter="url(#filter0_dd_801_86823)">
<mask id="path-1-inside-1_801_86823" fill="white">
<path d="M4 11C4 6.58172 7.58172 3 12 3H43C47.4183 3 51 6.58172 51 11V25C51 29.4183 47.4183 33 43 33H12C7.58172 33 4 29.4183 4 25V11Z"/>
</mask>
<path d="M4 11C4 6.58172 7.58172 3 12 3H43C47.4183 3 51 6.58172 51 11V25C51 29.4183 47.4183 33 43 33H12C7.58172 33 4 29.4183 4 25V11Z" fill="white" shape-rendering="crispEdges"/>
<path d="M12 4H43V2H12V4ZM50 11V25H52V11H50ZM43 32H12V34H43V32ZM5 25V11H3V25H5ZM12 32C8.13401 32 5 28.866 5 25H3C3 29.9706 7.02944 34 12 34V32ZM50 25C50 28.866 46.866 32 43 32V34C47.9706 34 52 29.9706 52 25H50ZM43 4C46.866 4 50 7.13401 50 11H52C52 6.02944 47.9706 2 43 2V4ZM12 2C7.02944 2 3 6.02944 3 11H5C5 7.13401 8.13401 4 12 4V2Z" fill="#D9D9D9" mask="url(#path-1-inside-1_801_86823)"/>
<path d="M28 27L33.6569 32.6569L28 38.3137L22.3431 32.6569L28 27Z" fill="white"/>
<path fill-rule="evenodd" clip-rule="evenodd" d="M22.3431 32.6569L28 38.3137L33.6569 32.6569L32.9497 31.9497L28 36.8995L23.0503 31.9497L22.3431 32.6569Z" fill="#D9D9D9"/>
<path fill-rule="evenodd" clip-rule="evenodd" d="M17.7729 7.06775L10.0625 14.8255L18.5241 23.3389L26.2345 15.5812L17.7729 7.06775ZM18.0519 9.52614L19.0904 10.5719L17.7301 11.9404L16.6916 10.8967L18.0519 9.52614ZM12.5073 15.1051L13.8686 13.7356L14.9061 14.7792L13.5447 16.1498L12.5073 15.1051ZM14.834 17.4468L16.1953 16.0783L17.2338 17.122L15.8714 18.4915L14.834 17.4468ZM18.2002 20.8322L17.1617 19.7875L18.5241 18.419L19.5616 19.4627L18.2002 20.8322ZM19.0173 13.2384L20.3796 11.8689L21.4171 12.9136L20.0547 14.2821L19.0173 13.2384ZM21.3471 15.5791L22.7074 14.2106L23.7459 15.2543L22.3846 16.6228L21.3471 15.5791Z" fill="#25295F"/>
<path fill-rule="evenodd" clip-rule="evenodd" d="M37.2576 7.06775L19.6641 24.7548L23.8412 28.9322H30.8198L44.9329 14.7434L37.2576 7.06775ZM37.0268 9.54589L38.3807 10.9019L37.3481 11.9346L35.9942 10.5806L37.0268 9.54589ZM34.711 11.8639L36.0649 13.2189L35.0323 14.2515L33.6773 12.8976L34.711 11.8639ZM32.3931 14.1808L33.7491 15.5348L32.7155 16.5675L31.3605 15.2135L32.3931 14.1808ZM30.0763 16.4967L31.4333 17.8518L30.3997 18.8854L29.0447 17.5294L30.0763 16.4967ZM23.4502 25.8342L22.0942 24.4792L23.1279 23.4455L24.4828 24.8005L23.4502 25.8342ZM25.766 23.5183L24.4111 22.1623L25.4426 21.1306L26.7976 22.4846L25.766 23.5183ZM26.7269 19.8463L27.7605 18.8127L29.1154 20.1687L28.0818 21.2014L26.7269 19.8463ZM29.9297 27.6832L28.5747 26.3282L29.6063 25.2945L30.9633 26.6506L29.9297 27.6832ZM32.2475 25.3652L30.8915 24.0102L31.9252 22.9765L33.2801 24.3336L32.2475 25.3652ZM34.5623 23.0493L33.2073 21.6943L34.2409 20.6606L35.5959 22.0156L34.5623 23.0493ZM36.8801 20.7324L35.5241 19.3773L36.5567 18.3447L37.9127 19.6987L36.8801 20.7324ZM39.1949 18.4164L37.8399 17.0614L38.8736 16.0288L40.2285 17.3828L39.1949 18.4164ZM40.1578 14.7434L41.1914 13.7108L42.5453 15.0658L41.5128 16.0995L40.1578 14.7434Z" fill="#8B2B87"/>
</g>
<defs>
<filter id="filter0_dd_801_86823" x="0" y="0" width="55" height="43.3137" filterUnits="userSpaceOnUse" color-interpolation-filters="sRGB">
<feFlood flood-opacity="0" result="BackgroundImageFix"/>
<feColorMatrix in="SourceAlpha" type="matrix" values="0 0 0 0 0 0 0 0 0 0 0 0 0 0 0 0 0 0 127 0" result="hardAlpha"/>
<feOffset dy="1"/>
<feGaussianBlur stdDeviation="2"/>
<feComposite in2="hardAlpha" operator="out"/>
<feColorMatrix type="matrix" values="0 0 0 0 0.0470588 0 0 0 0 0.0470588 0 0 0 0 0.0509804 0 0 0 0.05 0"/>
<feBlend mode="normal" in2="BackgroundImageFix" result="effect1_dropShadow_801_86823"/>
<feColorMatrix in="SourceAlpha" type="matrix" values="0 0 0 0 0 0 0 0 0 0 0 0 0 0 0 0 0 0 127 0" result="hardAlpha"/>
<feOffset dy="1"/>
<feGaussianBlur stdDeviation="2"/>
<feComposite in2="hardAlpha" operator="out"/>
<feColorMatrix type="matrix" values="0 0 0 0 0.0470588 0 0 0 0 0.0470588 0 0 0 0 0.0509804 0 0 0 0.1 0"/>
<feBlend mode="normal" in2="effect1_dropShadow_801_86823" result="effect2_dropShadow_801_86823"/>
<feBlend mode="normal" in="SourceGraphic" in2="effect2_dropShadow_801_86823" result="shape"/>
</filter>
</defs>
</svg>
