<svg width="245" height="49" viewBox="0 0 245 49" fill="none" xmlns="http://www.w3.org/2000/svg">
<path fill-rule="evenodd" clip-rule="evenodd" d="M14.9857 6.16553L0 21.0725L16.4457 37.4316L31.4315 22.5246L14.9857 6.16553ZM15.5279 10.8895L17.5463 12.899L14.9025 15.5286L12.8841 13.5231L15.5279 10.8895ZM4.75157 21.6097L7.39743 18.9781L9.4138 20.9836L6.76795 23.6172L4.75157 21.6097ZM9.27369 26.1095L11.9195 23.4799L13.938 25.4854L11.2901 28.117L9.27369 26.1095ZM15.8162 32.6147L13.7978 30.6072L16.4457 27.9776L18.4621 29.9831L15.8162 32.6147ZM17.4042 18.0228L20.0521 15.3912L22.0684 17.3988L19.4205 20.0283L17.4042 18.0228ZM21.9324 22.5206L24.5762 19.891L26.5946 21.8965L23.9487 24.5261L21.9324 22.5206Z" fill="#25295F"/>
<path fill-rule="evenodd" clip-rule="evenodd" d="M53.6793 6L19.3555 40.3923L27.5048 48.5152H41.1195L68.6532 20.9253L53.6793 6ZM53.2289 10.8187L55.8703 13.4556L53.8558 15.4635L51.2144 12.8307L53.2289 10.8187ZM48.711 15.326L51.3524 17.9609L49.3378 19.9688L46.6944 17.336L48.711 15.326ZM44.189 19.8313L46.8344 22.4641L44.8179 24.4721L42.1745 21.8393L44.189 19.8313ZM39.669 24.3346L42.3165 26.9694L40.2999 28.9794L37.6565 26.3426L39.669 24.3346ZM26.742 42.4913L24.0966 39.8564L26.1131 37.8465L28.7565 40.4813L26.742 42.4913ZM31.26 37.988L28.6166 35.3512L30.629 33.3452L33.2725 35.978L31.26 37.988ZM33.1345 30.8479L35.151 28.8379L37.7945 31.4747L35.7779 33.4827L33.1345 30.8479ZM39.3829 46.0866L36.7395 43.4518L38.752 41.4418L41.3995 44.0786L39.3829 46.0866ZM43.9049 41.5793L41.2595 38.9445L43.276 36.9345L45.9195 39.5733L43.9049 41.5793ZM48.4209 37.076L45.7775 34.4412L47.794 32.4312L50.4374 35.066L48.4209 37.076ZM52.9429 32.5707L50.2974 29.9359L52.3119 27.9279L54.9574 30.5607L52.9429 32.5707ZM57.4588 28.0675L54.8154 25.4326L56.8319 23.4247L59.4753 26.0575L57.4588 28.0675ZM59.3374 20.9253L61.3539 18.9173L63.9953 21.5522L61.9808 23.5622L59.3374 20.9253Z" fill="#8B2B87"/>
<path d="M79.0752 21.1732V19.8961H81.4497L83.9408 28.0869C84.3778 26.7169 84.81 25.3518 85.2373 23.9915C85.6646 22.6313 86.0968 21.2661 86.5338 19.8961H88.8355V21.1732H87.8303C87.335 22.6998 86.8373 24.2239 86.3371 25.7456C85.837 27.2674 85.3344 28.7915 84.8294 30.3181H83.0667C82.5714 28.7915 82.0786 27.2674 81.5881 25.7456C81.0977 24.2239 80.6048 22.6998 80.1095 21.1732H79.0752Z" fill="white"/>
<path d="M89.6621 21.1732V19.8961H93.3015V21.1732H92.3195V29.0557H93.3015V30.3181H89.6621V29.0557H90.6442V21.1732H89.6621Z" fill="white"/>
<path d="M94.46 21.1732V19.8961H98.9171C99.4841 19.8961 100.029 19.9352 100.552 20.0135C101.075 20.0918 101.534 20.2802 101.93 20.5787C102.326 20.8771 102.641 21.32 102.876 21.9071C103.11 22.4943 103.228 23.2918 103.228 24.2998V26.1053C103.228 27.0447 103.098 27.7933 102.839 28.3511C102.58 28.9089 102.243 29.3346 101.827 29.6282C101.412 29.9218 100.948 30.1102 100.435 30.1933C99.9215 30.2765 99.4107 30.3181 98.9025 30.3181H94.7825V29.0557H95.457V21.1732H94.46ZM101.542 24.3438C101.542 23.6001 101.461 23.0154 101.3 22.5897C101.138 22.164 100.936 21.846 100.691 21.6356C100.447 21.4252 100.176 21.2955 99.8775 21.2466C99.5794 21.1976 99.2983 21.1732 99.0344 21.1732H97.0844V29.0557H98.8878C99.2104 29.0557 99.528 29.019 99.8408 28.9456C100.154 28.8722 100.437 28.7206 100.691 28.4906C100.945 28.2606 101.151 27.9352 101.307 27.5144C101.463 27.0937 101.542 26.531 101.542 25.8264V24.3438Z" fill="white"/>
<path d="M104.717 21.1732V19.8961H112.18V21.9218H110.895V21.1732H107.404V24.3878H110.764V25.6796H107.404V29.0557H111.041V28.2924H112.327V30.3181H105.053V29.0557H105.725V21.1732H104.717Z" fill="white"/>
<path d="M118.027 19.7308C118.525 19.7308 119.027 19.7798 119.53 19.8779C120.034 19.9759 120.487 20.1794 120.888 20.4883C121.289 20.7972 121.616 21.241 121.871 21.8196C122.125 22.3982 122.252 23.1631 122.252 24.1143V25.953C122.252 26.9141 122.137 27.6888 121.907 28.2772C121.678 28.8656 121.367 29.324 120.976 29.6525C120.584 29.9811 120.135 30.2017 119.626 30.3145C119.117 30.4273 118.584 30.4836 118.027 30.4836C117.469 30.4836 116.936 30.4273 116.427 30.3145C115.919 30.2017 115.471 29.9811 115.085 29.6525C114.698 29.324 114.39 28.8631 114.16 28.2698C113.93 27.6765 113.815 26.9043 113.815 25.953V24.1143C113.815 23.1631 113.943 22.3982 114.197 21.8196C114.451 21.241 114.779 20.7972 115.18 20.4883C115.581 20.1794 116.033 19.9759 116.537 19.8779C117.041 19.7798 117.537 19.7308 118.027 19.7308ZM118.027 21.0105C117.645 21.0105 117.305 21.0645 117.007 21.1723C116.708 21.2802 116.452 21.469 116.236 21.7387C116.021 22.0083 115.857 22.3687 115.745 22.8198C115.632 23.2709 115.576 23.8397 115.576 24.5262V25.8353C115.576 26.512 115.635 27.0661 115.752 27.4976C115.87 27.929 116.033 28.2698 116.244 28.5199C116.454 28.7699 116.711 28.944 117.014 29.0421C117.317 29.1401 117.655 29.1892 118.027 29.1892C118.398 29.1892 118.736 29.1401 119.039 29.0421C119.342 28.944 119.601 28.7699 119.817 28.5199C120.032 28.2698 120.198 27.929 120.315 27.4976C120.433 27.0661 120.492 26.512 120.492 25.8353V24.5262C120.492 23.8397 120.435 23.2709 120.323 22.8198C120.21 22.3687 120.046 22.0083 119.831 21.7387C119.616 21.469 119.357 21.2802 119.054 21.1723C118.75 21.0645 118.408 21.0105 118.027 21.0105Z" fill="white"/>
<path d="M127.711 21.1732V19.8961H135.175V21.9218H133.889V21.1732H130.398V24.3878H133.758V25.6796H130.398V29.0557H134.035V28.2924H135.321V30.3181H128.047V29.0557H128.719V21.1732H127.711Z" fill="white"/>
<path d="M136.81 21.1732V19.8961H141.267C141.834 19.8961 142.379 19.9352 142.902 20.0135C143.424 20.0918 143.884 20.2802 144.28 20.5787C144.676 20.8771 144.991 21.32 145.225 21.9071C145.46 22.4943 145.577 23.2918 145.577 24.2998V26.1053C145.577 27.0447 145.448 27.7933 145.189 28.3511C144.93 28.9089 144.593 29.3346 144.177 29.6282C143.762 29.9218 143.297 30.1102 142.784 30.1933C142.271 30.2765 141.76 30.3181 141.252 30.3181H137.132V29.0557H137.807V21.1732H136.81ZM143.891 24.3438C143.891 23.6001 143.811 23.0154 143.649 22.5897C143.488 22.164 143.285 21.846 143.041 21.6356C142.796 21.4252 142.525 21.2955 142.227 21.2466C141.929 21.1976 141.648 21.1732 141.384 21.1732H139.434V29.0557H141.237C141.56 29.0557 141.878 29.019 142.19 28.9456C142.503 28.8722 142.787 28.7206 143.041 28.4906C143.295 28.2606 143.5 27.9352 143.657 27.5144C143.813 27.0937 143.891 26.531 143.891 25.8264V24.3438Z" fill="white"/>
<path d="M146.901 21.1732V19.8961H150.541V21.1732H149.559V29.0557H150.541V30.3181H146.901V29.0557H147.883V21.1732H146.901Z" fill="white"/>
<path d="M152.764 22.4796H151.533V19.8961H160.632V22.4796H159.401V21.1732H156.881V29.0557H157.951V30.3181H154.17V29.0557H155.255V21.1732H152.764V22.4796Z" fill="white"/>
<path d="M161.459 21.1732V19.8961H165.098V21.1732H164.116V29.0557H165.098V30.3181H161.459V29.0557H162.441V21.1732H161.459Z" fill="white"/>
<path d="M170.467 19.7308C170.966 19.7308 171.467 19.7798 171.971 19.8779C172.475 19.9759 172.927 20.1794 173.328 20.4883C173.729 20.7972 174.057 21.241 174.311 21.8196C174.566 22.3982 174.693 23.1631 174.693 24.1143V25.953C174.693 26.9141 174.578 27.6888 174.348 28.2772C174.118 28.8656 173.807 29.324 173.416 29.6525C173.025 29.9811 172.575 30.2017 172.066 30.3145C171.558 30.4273 171.025 30.4836 170.467 30.4836C169.909 30.4836 169.376 30.4273 168.868 30.3145C168.359 30.2017 167.911 29.9811 167.525 29.6525C167.139 29.324 166.831 28.8631 166.601 28.2698C166.371 27.6765 166.256 26.9043 166.256 25.953V24.1143C166.256 23.1631 166.383 22.3982 166.637 21.8196C166.892 21.241 167.219 20.7972 167.62 20.4883C168.021 20.1794 168.474 19.9759 168.978 19.8779C169.481 19.7798 169.978 19.7308 170.467 19.7308ZM170.467 21.0105C170.085 21.0105 169.746 21.0645 169.447 21.1723C169.149 21.2802 168.892 21.469 168.677 21.7387C168.462 22.0083 168.298 22.3687 168.185 22.8198C168.073 23.2709 168.017 23.8397 168.017 24.5262V25.8353C168.017 26.512 168.075 27.0661 168.193 27.4976C168.31 27.929 168.474 28.2698 168.684 28.5199C168.895 28.7699 169.151 28.944 169.455 29.0421C169.758 29.1401 170.095 29.1892 170.467 29.1892C170.839 29.1892 171.176 29.1401 171.479 29.0421C171.783 28.944 172.042 28.7699 172.257 28.5199C172.472 28.2698 172.639 27.929 172.756 27.4976C172.873 27.0661 172.932 26.512 172.932 25.8353V24.5262C172.932 23.8397 172.876 23.2709 172.763 22.8198C172.651 22.3687 172.487 22.0083 172.272 21.7387C172.057 21.469 171.797 21.2802 171.494 21.1723C171.191 21.0645 170.848 21.0105 170.467 21.0105Z" fill="white"/>
<path d="M176.017 21.1585V19.8961H178.811L183.898 27.8227V21.1585H182.898V19.8961H186.604V21.1585H185.604V29.0557H186.604V30.3181H183.825L178.722 22.3915V30.3181H176.267V29.0557H177.017V21.1585H176.017Z" fill="white"/>
<path d="M197.678 22.254L197.605 21.3591C197.478 21.32 197.336 21.2858 197.18 21.2564C197.024 21.2271 196.868 21.2026 196.712 21.1831C196.556 21.1635 196.405 21.1513 196.258 21.1464C196.112 21.1415 195.99 21.1391 195.893 21.1391C195.678 21.1391 195.441 21.1562 195.183 21.1904C194.924 21.2246 194.685 21.2882 194.466 21.3811C194.246 21.474 194.061 21.6012 193.91 21.7625C193.758 21.9239 193.683 22.1366 193.683 22.4007C193.683 22.8799 193.897 23.2588 194.327 23.5376C194.756 23.8163 195.38 24.0485 196.2 24.2344C196.522 24.2833 196.875 24.3664 197.261 24.4837C197.646 24.6011 198.005 24.7771 198.336 25.0119C198.668 25.2466 198.946 25.5546 199.171 25.936C199.395 26.3175 199.507 26.7967 199.507 27.3737C199.507 27.8627 199.395 28.3003 199.171 28.6866C198.946 29.0729 198.644 29.3981 198.263 29.6621C197.883 29.9262 197.446 30.1291 196.954 30.2709C196.461 30.4127 195.951 30.4836 195.424 30.4836C194.829 30.4836 194.232 30.447 193.632 30.3736C193.032 30.3003 192.454 30.1707 191.897 29.9849L192.117 27.7404H193.317V28.782C193.434 28.8211 193.568 28.8553 193.719 28.8846C193.871 28.914 194.024 28.9409 194.18 28.9653C194.336 28.9898 194.493 29.0069 194.649 29.0167C194.805 29.0265 194.946 29.0313 195.073 29.0313C195.463 29.0313 195.817 28.9873 196.134 28.8993C196.451 28.8113 196.724 28.6939 196.954 28.5472C197.183 28.4005 197.358 28.2294 197.48 28.0338C197.602 27.8382 197.663 27.6328 197.663 27.4177C197.663 27.0852 197.597 26.8138 197.466 26.6035C197.334 26.3932 197.156 26.2245 196.932 26.0974C196.707 25.9703 196.444 25.8676 196.141 25.7893C195.839 25.7111 195.512 25.6329 195.161 25.5546C193.054 25.0852 192 24.0339 192 22.4007C192 21.9117 192.093 21.4985 192.278 21.1611C192.463 20.8237 192.727 20.5474 193.068 20.3322C193.41 20.1171 193.817 19.963 194.29 19.8701C194.763 19.7772 195.293 19.7308 195.878 19.7308C196.346 19.7308 196.836 19.7626 197.349 19.8261C197.861 19.8897 198.439 20.0046 199.083 20.1709C199.044 20.5229 198.993 20.8775 198.929 21.2344C198.866 21.5914 198.819 21.9459 198.79 22.298L197.678 22.254Z" fill="white"/>
<path d="M201.896 22.4796H200.665V19.8961H209.764V22.4796H208.533V21.1732H206.013V29.0557H207.082V30.3181H203.302V29.0557H204.387V21.1732H201.896V22.4796Z" fill="white"/>
<path d="M220.517 21.1444H219.874V26.1224C219.874 26.7489 219.813 27.2947 219.692 27.7597C219.57 28.2247 219.407 28.6187 219.202 28.9418C218.998 29.2648 218.759 29.5267 218.487 29.7274C218.214 29.9281 217.925 30.0847 217.618 30.1973C217.311 30.3099 216.995 30.3857 216.669 30.4249C216.342 30.4641 216.024 30.4836 215.712 30.4836C215.245 30.4836 214.768 30.4347 214.281 30.3368C213.794 30.2389 213.349 30.0358 212.945 29.7274C212.54 29.419 212.209 28.9785 211.951 28.4058C211.693 27.8331 211.564 27.072 211.564 26.1224V21.1444H210.922V19.8962H213.259V25.9315C213.259 26.6559 213.332 27.2311 213.478 27.6569C213.624 28.0827 213.813 28.4083 214.047 28.6334C214.281 28.8586 214.544 29.0054 214.836 29.0739C215.128 29.1425 215.42 29.1767 215.712 29.1767C215.955 29.1767 216.221 29.1498 216.508 29.096C216.795 29.0421 217.063 28.9075 217.311 28.6921C217.559 28.4768 217.766 28.1513 217.932 27.7156C218.097 27.28 218.18 26.6853 218.18 25.9315V19.8962H220.517V21.1444Z" fill="white"/>
<path d="M221.84 21.1732V19.8961H226.297C226.864 19.8961 227.409 19.9352 227.932 20.0135C228.455 20.0918 228.914 20.2802 229.31 20.5787C229.706 20.8771 230.021 21.32 230.256 21.9071C230.49 22.4943 230.608 23.2918 230.608 24.2998V26.1053C230.608 27.0447 230.478 27.7933 230.219 28.3511C229.96 28.9089 229.623 29.3346 229.207 29.6282C228.792 29.9218 228.328 30.1102 227.815 30.1933C227.301 30.2765 226.791 30.3181 226.282 30.3181H222.162V29.0557H222.837V21.1732H221.84ZM228.921 24.3438C228.921 23.6001 228.841 23.0154 228.68 22.5897C228.518 22.164 228.315 21.846 228.071 21.6356C227.827 21.4252 227.555 21.2955 227.257 21.2466C226.959 21.1976 226.678 21.1732 226.414 21.1732H224.464V29.0557H226.268C226.59 29.0557 226.908 29.019 227.221 28.9456C227.533 28.8722 227.817 28.7206 228.071 28.4906C228.325 28.2606 228.53 27.9352 228.687 27.5144C228.843 27.0937 228.921 26.531 228.921 25.8264V24.3438Z" fill="white"/>
<path d="M231.766 21.1732V19.8961H235.405V21.1732H234.423V29.0557H235.405V30.3181H231.766V29.0557H232.748V21.1732H231.766Z" fill="white"/>
<path d="M240.775 19.7308C241.273 19.7308 241.775 19.7798 242.279 19.8779C242.782 19.9759 243.235 20.1794 243.636 20.4883C244.037 20.7972 244.365 21.241 244.619 21.8196C244.873 22.3982 245 23.1631 245 24.1143V25.953C245 26.9141 244.885 27.6888 244.656 28.2772C244.426 28.8656 244.115 29.324 243.724 29.6525C243.333 29.9811 242.883 30.2017 242.374 30.3145C241.865 30.4273 241.332 30.4836 240.775 30.4836C240.217 30.4836 239.684 30.4273 239.175 30.3145C238.667 30.2017 238.219 29.9811 237.833 29.6525C237.446 29.324 237.138 28.8631 236.908 28.2698C236.678 27.6765 236.563 26.9043 236.563 25.953V24.1143C236.563 23.1631 236.691 22.3982 236.945 21.8196C237.199 21.241 237.527 20.7972 237.928 20.4883C238.329 20.1794 238.782 19.9759 239.285 19.8779C239.789 19.7798 240.285 19.7308 240.775 19.7308ZM240.775 21.0105C240.393 21.0105 240.053 21.0645 239.755 21.1723C239.456 21.2802 239.2 21.469 238.984 21.7387C238.769 22.0083 238.605 22.3687 238.493 22.8198C238.38 23.2709 238.324 23.8397 238.324 24.5262V25.8353C238.324 26.512 238.383 27.0661 238.5 27.4976C238.618 27.929 238.782 28.2698 238.992 28.5199C239.202 28.7699 239.459 28.944 239.762 29.0421C240.065 29.1401 240.403 29.1892 240.775 29.1892C241.146 29.1892 241.484 29.1401 241.787 29.0421C242.09 28.944 242.349 28.7699 242.565 28.5199C242.78 28.2698 242.946 27.929 243.064 27.4976C243.181 27.0661 243.24 26.512 243.24 25.8353V24.5262C243.24 23.8397 243.183 23.2709 243.071 22.8198C242.958 22.3687 242.795 22.0083 242.579 21.7387C242.364 21.469 242.105 21.2802 241.802 21.1723C241.498 21.0645 241.156 21.0105 240.775 21.0105Z" fill="white"/>
</svg>
