<svg width="207" height="15" viewBox="0 0 207 15" fill="none" xmlns="http://www.w3.org/2000/svg">
<path d="M0.44043 2.42553L0.44043 0.835718H3.39646L6.49758 11.0325C7.04164 9.32691 7.57965 7.62745 8.11161 5.93409C8.64358 4.24072 9.18159 2.54127 9.72564 0.835718H12.591V2.42553H11.3397C10.7231 4.326 10.1035 6.22342 9.48082 8.1178C8.85818 10.0122 8.23251 11.9096 7.60383 13.8101H5.40947C4.79287 11.9096 4.1793 10.0122 3.56875 8.1178C2.9582 6.22342 2.34462 4.326 1.72803 2.42553H0.44043Z" fill="white"/>
<path d="M13.6211 2.42553V0.835718H18.1518V2.42553H16.9292V12.2385H18.1518V13.8101H13.6211V12.2385H14.8437L14.8437 2.42553H13.6211Z" fill="white"/>
<path d="M19.5928 2.42553V0.835718H25.1415C25.8473 0.835718 26.5256 0.884448 27.1766 0.981908C27.8276 1.07937 28.3995 1.31388 28.8924 1.68545C29.3852 2.05701 29.7776 2.60827 30.0696 3.33922C30.3617 4.07017 30.5077 5.06304 30.5077 6.31783V8.5655C30.5077 9.73502 30.3465 10.667 30.024 11.3614C29.7015 12.0558 29.2817 12.5857 28.7646 12.9512C28.2474 13.3167 27.6694 13.5512 27.0306 13.6547C26.3918 13.7583 25.756 13.8101 25.1232 13.8101H19.9943V12.2385H20.8339V2.42553H19.5928ZM28.4087 6.37265C28.4087 5.44679 28.3083 4.71888 28.1075 4.18895C27.9067 3.65901 27.6542 3.26308 27.35 3.00115C27.0458 2.73923 26.7082 2.57781 26.337 2.5169C25.9659 2.45599 25.6161 2.42553 25.2875 2.42553H22.8599V12.2385H25.105C25.5065 12.2385 25.902 12.1928 26.2914 12.1015C26.6808 12.0101 27.0337 11.8213 27.35 11.535C27.6664 11.2487 27.9219 10.8436 28.1166 10.3198C28.3113 9.79593 28.4087 9.09544 28.4087 8.2183V6.37265Z" fill="white"/>
<path d="M32.3613 2.42553V0.835718L41.6528 0.835718V3.35749H40.0527V2.42553L35.707 2.42553V6.42748L39.8891 6.42748V8.03556H35.707V12.2385H40.2346V11.2883L41.8347 11.2883V13.8101L32.7795 13.8101V12.2385H33.616V2.42553H32.3613Z" fill="white"/>
<path d="M48.9309 0.629766C49.5519 0.629766 50.176 0.690806 50.8031 0.812887C51.4303 0.934969 51.9935 1.18829 52.4928 1.57284C52.992 1.9574 53.4 2.50982 53.7166 3.2301C54.0332 3.95038 54.1915 4.90261 54.1915 6.0868V8.37583C54.1915 9.57223 54.0484 10.5367 53.7623 11.2692C53.4761 12.0016 53.0895 12.5724 52.6024 12.9814C52.1153 13.3903 51.5551 13.665 50.9219 13.8054C50.2886 13.9458 49.625 14.016 48.9309 14.016C48.2367 14.016 47.5731 13.9458 46.9399 13.8054C46.3066 13.665 45.7495 13.3903 45.2685 12.9814C44.7875 12.5724 44.4039 11.9986 44.1177 11.26C43.8316 10.5214 43.6885 9.56002 43.6885 8.37583V6.0868C43.6885 4.90261 43.8468 3.95038 44.1634 3.2301C44.48 2.50982 44.888 1.9574 45.3872 1.57284C45.8865 1.18829 46.4497 0.934969 47.0768 0.812887C47.704 0.690806 48.322 0.629766 48.9309 0.629766ZM48.9309 2.22293C48.4559 2.22293 48.0328 2.29007 47.6614 2.42436C47.29 2.55865 46.9703 2.79366 46.7024 3.12938C46.4345 3.46511 46.2305 3.91376 46.0905 4.47533C45.9504 5.0369 45.8804 5.74498 45.8804 6.59955V8.22933C45.8804 9.07169 45.9535 9.76145 46.0996 10.2986C46.2457 10.8358 46.4497 11.26 46.7115 11.5713C46.9733 11.8826 47.293 12.0993 47.6705 12.2214C48.048 12.3435 48.4681 12.4045 48.9309 12.4045C49.3936 12.4045 49.8137 12.3435 50.1912 12.2214C50.5687 12.0993 50.8914 11.8826 51.1593 11.5713C51.4272 11.26 51.6343 10.8358 51.7804 10.2986C51.9265 9.76145 51.9996 9.07169 51.9996 8.22933V6.59955C51.9996 5.74498 51.9296 5.0369 51.7895 4.47533C51.6495 3.91376 51.4455 3.46511 51.1776 3.12938C50.9097 2.79366 50.587 2.55865 50.2095 2.42436C49.832 2.29007 49.4058 2.22293 48.9309 2.22293Z" fill="white"/>
<path d="M60.9873 2.42553V0.835718L70.2788 0.835718V3.35749H68.6787V2.42553L64.333 2.42553V6.42748L68.5151 6.42748V8.03556H64.333V12.2385H68.8605V11.2883L70.4606 11.2883V13.8101L61.4055 13.8101V12.2385H62.2419V2.42553H60.9873Z" fill="white"/>
<path d="M72.3145 2.42553V0.835718H77.8632C78.5689 0.835718 79.2473 0.884448 79.8983 0.981908C80.5493 1.07937 81.1212 1.31388 81.614 1.68545C82.1069 2.05701 82.4993 2.60827 82.7913 3.33922C83.0834 4.07017 83.2294 5.06304 83.2294 6.31783V8.5655C83.2294 9.73502 83.0681 10.667 82.7457 11.3614C82.4232 12.0558 82.0034 12.5857 81.4863 12.9512C80.9691 13.3167 80.3911 13.5512 79.7523 13.6547C79.1135 13.7583 78.4777 13.8101 77.8449 13.8101H72.716V12.2385H73.5556V2.42553H72.3145ZM81.1304 6.37265C81.1304 5.44679 81.03 4.71888 80.8292 4.18895C80.6284 3.65901 80.3759 3.26308 80.0717 3.00115C79.7675 2.73923 79.4298 2.57781 79.0587 2.5169C78.6876 2.45599 78.3377 2.42553 78.0092 2.42553H75.5816V12.2385H77.8267C78.2282 12.2385 78.6237 12.1928 79.0131 12.1015C79.4025 12.0101 79.7553 11.8213 80.0717 11.535C80.3881 11.2487 80.6436 10.8436 80.8383 10.3198C81.033 9.79593 81.1304 9.09544 81.1304 8.2183V6.37265Z" fill="white"/>
<path d="M84.877 2.42553V0.835718H89.4077V2.42553H88.1851V12.2385H89.4077V13.8101H84.877V12.2385H86.0995V2.42553H84.877Z" fill="white"/>
<path d="M92.1757 4.05189H90.6436V0.835718L101.97 0.835718V4.05189H100.438V2.42553L97.301 2.42553V12.2385H98.6325V13.8101L93.9267 13.8101V12.2385H95.2764V2.42553H92.1757V4.05189Z" fill="white"/>
<path d="M102.999 2.42553V0.835718H107.53V2.42553H106.307V12.2385H107.53V13.8101H102.999V12.2385H104.222V2.42553H102.999Z" fill="white"/>
<path d="M114.214 0.629766C114.835 0.629766 115.459 0.690806 116.086 0.812887C116.713 0.934969 117.277 1.18829 117.776 1.57284C118.275 1.9574 118.683 2.50982 119 3.2301C119.316 3.95038 119.475 4.90261 119.475 6.0868V8.37583C119.475 9.57223 119.332 10.5367 119.045 11.2692C118.759 12.0016 118.373 12.5724 117.886 12.9814C117.398 13.3903 116.838 13.665 116.205 13.8054C115.572 13.9458 114.908 14.016 114.214 14.016C113.52 14.016 112.856 13.9458 112.223 13.8054C111.59 13.665 111.033 13.3903 110.552 12.9814C110.071 12.5724 109.687 11.9986 109.401 11.26C109.115 10.5214 108.972 9.56002 108.972 8.37583V6.0868C108.972 4.90261 109.13 3.95038 109.447 3.2301C109.763 2.50982 110.171 1.9574 110.67 1.57284C111.17 1.18829 111.733 0.934969 112.36 0.812887C112.987 0.690806 113.605 0.629766 114.214 0.629766ZM114.214 2.22293C113.739 2.22293 113.316 2.29007 112.945 2.42436C112.573 2.55865 112.253 2.79366 111.986 3.12938C111.718 3.46511 111.514 3.91376 111.374 4.47533C111.234 5.0369 111.164 5.74498 111.164 6.59955V8.22933C111.164 9.07169 111.237 9.76145 111.383 10.2986C111.529 10.8358 111.733 11.26 111.995 11.5713C112.257 11.8826 112.576 12.0993 112.954 12.2214C113.331 12.3435 113.751 12.4045 114.214 12.4045C114.677 12.4045 115.097 12.3435 115.474 12.2214C115.852 12.0993 116.175 11.8826 116.443 11.5713C116.71 11.26 116.917 10.8358 117.064 10.2986C117.21 9.76145 117.283 9.07169 117.283 8.22933V6.59955C117.283 5.74498 117.213 5.0369 117.073 4.47533C116.933 3.91376 116.729 3.46511 116.461 3.12938C116.193 2.79366 115.87 2.55865 115.493 2.42436C115.115 2.29007 114.689 2.22293 114.214 2.22293Z" fill="white"/>
<path d="M121.122 2.40726V0.835718H124.6L130.934 10.7035V2.40726H129.689V0.835718H134.302V2.40726H133.058V12.2385H134.302V13.8101H130.843L124.49 3.94225V13.8101H121.433V12.2385H122.367V2.40726H121.122Z" fill="white"/>
<path d="M148.089 3.77087L147.998 2.65687C147.84 2.60818 147.664 2.56556 147.469 2.52904C147.275 2.49251 147.081 2.46208 146.886 2.43773C146.692 2.41338 146.504 2.39816 146.322 2.39207C146.139 2.38599 145.988 2.38294 145.866 2.38294C145.599 2.38294 145.304 2.40425 144.983 2.44686C144.661 2.48947 144.363 2.56861 144.09 2.68427C143.817 2.79993 143.586 2.9582 143.398 3.15909C143.209 3.35997 143.115 3.62477 143.115 3.95349C143.115 4.55006 143.382 5.02184 143.917 5.36882C144.451 5.7158 145.228 6.00495 146.249 6.23627C146.649 6.29715 147.09 6.40064 147.569 6.54673C148.049 6.69283 148.496 6.91198 148.908 7.20417C149.321 7.49637 149.668 7.87988 149.947 8.3547C150.226 8.82951 150.366 9.42608 150.366 10.1444C150.366 10.7531 150.226 11.298 149.947 11.7789C149.668 12.2598 149.291 12.6646 148.817 12.9933C148.344 13.322 147.8 13.5747 147.187 13.7512C146.574 13.9277 145.939 14.016 145.283 14.016C144.542 14.016 143.798 13.9703 143.051 13.879C142.304 13.7877 141.585 13.6264 140.893 13.3951L141.166 10.601H142.66V11.8976C142.805 11.9463 142.972 11.9889 143.161 12.0254C143.349 12.0619 143.54 12.0954 143.735 12.1258C143.929 12.1563 144.123 12.1776 144.318 12.1898C144.512 12.2019 144.688 12.208 144.846 12.208C145.332 12.208 145.772 12.1532 146.167 12.0437C146.561 11.9341 146.901 11.788 147.187 11.6054C147.472 11.4228 147.691 11.2097 147.843 10.9662C147.995 10.7227 148.07 10.467 148.07 10.1992C148.07 9.78524 147.988 9.44739 147.825 9.18563C147.661 8.92387 147.439 8.71385 147.16 8.55558C146.88 8.39731 146.552 8.26947 146.176 8.17207C145.799 8.07467 145.392 7.97728 144.955 7.87988C142.332 7.29549 141.02 5.98669 141.02 3.95349C141.02 3.34475 141.135 2.83037 141.366 2.41033C141.597 1.9903 141.925 1.64636 142.35 1.37852C142.775 1.11067 143.282 0.918918 143.871 0.803257C144.46 0.687596 145.119 0.629766 145.848 0.629766C146.431 0.629766 147.041 0.669334 147.679 0.74847C148.316 0.827607 149.036 0.970661 149.838 1.17763C149.789 1.61593 149.725 2.05726 149.646 2.50165C149.567 2.94603 149.51 3.38736 149.473 3.82566L148.089 3.77087Z" fill="white"/>
<path d="M153.34 4.05189H151.808V0.835718L163.134 0.835718V4.05189H161.602V2.42553L158.465 2.42553V12.2385H159.797V13.8101L155.091 13.8101V12.2385H156.44V2.42553H153.34V4.05189Z" fill="white"/>
<path d="M176.521 2.38956H175.721V8.58667C175.721 9.36664 175.645 10.0461 175.494 10.6249C175.342 11.2038 175.139 11.6944 174.885 12.0965C174.63 12.4987 174.333 12.8247 173.994 13.0745C173.654 13.3244 173.294 13.5194 172.912 13.6595C172.53 13.7997 172.136 13.8941 171.73 13.9429C171.324 13.9916 170.927 14.016 170.539 14.016C169.958 14.016 169.364 13.9551 168.758 13.8332C168.152 13.7113 167.597 13.4584 167.094 13.0745C166.591 12.6907 166.179 12.1422 165.858 11.4293C165.537 10.7164 165.376 9.76881 165.376 8.58667V2.38956H164.576V0.83571H167.485V8.34902C167.485 9.25086 167.576 9.96685 167.758 10.497C167.94 11.0271 168.176 11.4323 168.467 11.7126C168.758 11.9929 169.085 12.1757 169.449 12.2611C169.812 12.3464 170.176 12.389 170.539 12.389C170.842 12.389 171.173 12.3555 171.53 12.2885C171.888 12.2214 172.221 12.0539 172.53 11.7858C172.839 11.5176 173.097 11.1124 173.303 10.5701C173.509 10.0278 173.612 9.28742 173.612 8.34902V0.83571H176.521V2.38956Z" fill="white"/>
<path d="M178.168 2.42553V0.835718H183.717C184.422 0.835718 185.101 0.884448 185.752 0.981908C186.403 1.07937 186.975 1.31388 187.468 1.68545C187.96 2.05701 188.353 2.60827 188.645 3.33922C188.937 4.07017 189.083 5.06304 189.083 6.31783V8.5655C189.083 9.73502 188.922 10.667 188.599 11.3614C188.277 12.0558 187.857 12.5857 187.34 12.9512C186.823 13.3167 186.245 13.5512 185.606 13.6547C184.967 13.7583 184.331 13.8101 183.698 13.8101H178.57V12.2385H179.409V2.42553H178.168ZM186.984 6.37265C186.984 5.44679 186.883 4.71888 186.683 4.18895C186.482 3.65901 186.229 3.26308 185.925 3.00115C185.621 2.73923 185.283 2.57781 184.912 2.5169C184.541 2.45599 184.191 2.42553 183.863 2.42553H181.435V12.2385H183.68C184.082 12.2385 184.477 12.1928 184.867 12.1015C185.256 12.0101 185.609 11.8213 185.925 11.535C186.242 11.2487 186.497 10.8436 186.692 10.3198C186.887 9.79593 186.984 9.09544 186.984 8.2183V6.37265Z" fill="white"/>
<path d="M190.524 2.42553V0.835718H195.055V2.42553H193.833V12.2385H195.055V13.8101H190.524V12.2385H191.747V2.42553H190.524Z" fill="white"/>
<path d="M201.739 0.629766C202.361 0.629766 202.985 0.690806 203.612 0.812887C204.239 0.934969 204.802 1.18829 205.301 1.57284C205.801 1.9574 206.209 2.50982 206.525 3.2301C206.842 3.95038 207 4.90261 207 6.0868V8.37583C207 9.57223 206.857 10.5367 206.571 11.2692C206.285 12.0016 205.898 12.5724 205.411 12.9814C204.924 13.3903 204.364 13.665 203.73 13.8054C203.097 13.9458 202.434 14.016 201.739 14.016C201.045 14.016 200.382 13.9458 199.748 13.8054C199.115 13.665 198.558 13.3903 198.077 12.9814C197.596 12.5724 197.212 11.9986 196.926 11.26C196.64 10.5214 196.497 9.56002 196.497 8.37583V6.0868C196.497 4.90261 196.655 3.95038 196.972 3.2301C197.289 2.50982 197.697 1.9574 198.196 1.57284C198.695 1.18829 199.258 0.934969 199.885 0.812887C200.513 0.690806 201.131 0.629766 201.739 0.629766ZM201.739 2.22293C201.265 2.22293 200.841 2.29007 200.47 2.42436C200.099 2.55865 199.779 2.79366 199.511 3.12938C199.243 3.46511 199.039 3.91376 198.899 4.47533C198.759 5.0369 198.689 5.74498 198.689 6.59955V8.22933C198.689 9.07169 198.762 9.76145 198.908 10.2986C199.054 10.8358 199.258 11.26 199.52 11.5713C199.782 11.8826 200.102 12.0993 200.479 12.2214C200.857 12.3435 201.277 12.4045 201.739 12.4045C202.202 12.4045 202.622 12.3435 203 12.2214C203.377 12.0993 203.7 11.8826 203.968 11.5713C204.236 11.26 204.443 10.8358 204.589 10.2986C204.735 9.76145 204.808 9.07169 204.808 8.22933V6.59955C204.808 5.74498 204.738 5.0369 204.598 4.47533C204.458 3.91376 204.254 3.46511 203.986 3.12938C203.718 2.79366 203.396 2.55865 203.018 2.42436C202.641 2.29007 202.214 2.22293 201.739 2.22293Z" fill="white"/>
</svg>
