<svg width="86" height="54" viewBox="0 0 86 54" fill="none" xmlns="http://www.w3.org/2000/svg">
<path fill-rule="evenodd" clip-rule="evenodd" d="M18.6557 0.705933L0 19.2636L20.4733 39.629L39.129 21.0713L18.6557 0.705933ZM19.3307 6.58675L21.8434 9.08842L18.5521 12.362L16.0394 9.86533L19.3307 6.58675ZM5.91523 19.9324L9.20904 16.6563L11.7192 19.1529L8.4254 22.4315L5.91523 19.9324ZM11.5448 25.5341L14.8386 22.2606L17.3513 24.7572L14.055 28.0333L11.5448 25.5341ZM19.6896 33.6325L17.1769 31.1333L20.4733 27.8598L22.9834 30.3564L19.6896 33.6325ZM21.6664 15.4671L24.9628 12.191L27.4729 14.6902L24.1766 17.9637L21.6664 15.4671ZM27.3036 21.0663L30.5949 17.7927L33.1076 20.2894L29.8137 23.5629L27.3036 21.0663Z" fill="#25295F"/>
<path fill-rule="evenodd" clip-rule="evenodd" d="M66.8244 0.5L24.0947 43.3149L34.2398 53.4271H51.1887L85.4654 19.0805L66.8244 0.5ZM66.2637 6.49882L69.552 9.78143L67.0441 12.2812L63.7558 9.00357L66.2637 6.49882ZM60.6393 12.11L63.9276 15.3901L61.4197 17.8898L58.1289 14.6122L60.6393 12.11ZM55.0099 17.7186L58.3032 20.9962L55.7928 23.4959L52.502 20.2183L55.0099 17.7186ZM49.383 23.3247L52.6788 26.6048L50.1684 29.1071L46.8776 25.8244L49.383 23.3247ZM33.2902 45.9279L29.9969 42.6478L32.5073 40.1456L35.7981 43.4257L33.2902 45.9279ZM38.9146 40.3218L35.6238 37.0392L38.1292 34.542L41.4199 37.8196L38.9146 40.3218ZM41.2482 31.4331L43.7586 28.9308L47.0494 32.2134L44.539 34.7132L41.2482 31.4331ZM49.0269 50.4037L45.7361 47.1237L48.2414 44.6214L51.5373 47.904L49.0269 50.4037ZM54.6563 44.7926L51.363 41.5125L53.8734 39.0103L57.1642 42.2954L54.6563 44.7926ZM60.2782 39.1865L56.9874 35.9064L59.4978 33.4042L62.7886 36.6842L60.2782 39.1865ZM65.9076 33.5778L62.6143 30.2978L65.1222 27.798L68.4155 31.0756L65.9076 33.5778ZM71.5295 27.9717L68.2387 24.6916L70.7491 22.1919L74.0399 25.4695L71.5295 27.9717ZM73.8681 19.0805L76.3785 16.5808L79.6668 19.8609L77.1589 22.3631L73.8681 19.0805Z" fill="#8B2B87"/>
</svg>
